<svg xmlns="http://www.w3.org/2000/svg" xmlns:xlink="http://www.w3.org/1999/xlink" width="1920" zoomAndPan="magnify" viewBox="0 0 1440 809.999993" height="1080" preserveAspectRatio="xMidYMid meet" version="1.0"><defs><g/><clipPath id="d6f63df3eb"><path d="M 373.460938 143.863281 L 1066.460938 143.863281 L 1066.460938 538.363281 L 373.460938 538.363281 Z M 373.460938 143.863281 " clip-rule="nonzero"/></clipPath><clipPath id="d8c5e02942"><path d="M 417.53125 645.84375 L 667.28125 645.84375 L 667.28125 714.84375 L 417.53125 714.84375 Z M 417.53125 645.84375 " clip-rule="nonzero"/></clipPath><clipPath id="8d1b35fbf6"><path d="M 417.53125 645.84375 L 667.28125 645.84375 L 667.28125 714.84375 L 417.53125 714.84375 Z M 417.53125 645.84375 " clip-rule="nonzero"/></clipPath><clipPath id="54195f2219"><path d="M 778.035156 645.84375 L 1027.785156 645.84375 L 1027.785156 714.84375 L 778.035156 714.84375 Z M 778.035156 645.84375 " clip-rule="nonzero"/></clipPath><clipPath id="00770ee6ac"><path d="M 778.035156 645.84375 L 1027.785156 645.84375 L 1027.785156 714.84375 L 778.035156 714.84375 Z M 778.035156 645.84375 " clip-rule="nonzero"/></clipPath></defs><rect x="-144" width="1728" fill="#ffffff" y="-80.999999" height="971.999992" fill-opacity="1"/><rect x="-144" width="1728" fill="#000000" y="-80.999999" height="971.999992" fill-opacity="1"/><g clip-path="url(#d6f63df3eb)"><path fill="#000000" d="M 400.96875 324.253906 L 373.808594 324.253906 C 373.808594 273.183594 373.808594 222.109375 373.808594 171.039062 L 400.96875 171.039062 L 400.96875 143.863281 C 531.519531 143.863281 662.074219 144.039062 792.628906 144.039062 L 792.628906 171.210938 L 804.207031 171.210938 L 804.207031 144.039062 L 843.292969 144.039062 C 905.328125 144.039062 967.257812 143.863281 1029.46875 143.863281 L 1066.121094 143.863281 L 1066.121094 180.996094 C 1066.121094 185.027344 1066.121094 189.0625 1066.121094 193.09375 C 1066.121094 197.125 1066.121094 201.160156 1066.121094 205.191406 L 1066.121094 242.324219 C 1047.933594 242.324219 1029.75 242.324219 1011.566406 242.324219 C 1011.566406 244.105469 1011.566406 245.890625 1011.566406 247.671875 C 1011.566406 249.515625 1011.566406 251.355469 1011.566406 253.199219 C 1029.75 253.199219 1047.933594 253.199219 1066.121094 253.199219 C 1066.121094 286.019531 1066.121094 305.914062 1066.121094 338.734375 L 1038.113281 338.734375 L 1038.113281 344.65625 L 1065.5 344.65625 C 1065.5 377.476562 1065.5 423.21875 1065.5 456.035156 L 1038.113281 456.035156 L 1038.113281 476.699219 C 1038.113281 487.058594 1038.113281 497.414062 1038.113281 507.769531 L 1038.113281 538.023438 L 1001.464844 538.023438 C 924.886719 538.023438 849.179688 538.371094 772.507812 538.371094 C 768.546875 538.371094 764.585938 538.371094 760.625 538.371094 L 723.972656 538.371094 L 723.972656 510.964844 L 696.757812 510.964844 L 696.757812 510.792969 L 686.8125 510.792969 L 686.8125 538.199219 C 654.417969 538.199219 622.027344 538.199219 589.632812 538.199219 L 589.632812 510.792969 L 580.539062 510.792969 L 580.539062 511.132812 L 553.152344 511.132812 L 553.152344 538.367188 C 502.59375 538.367188 452.035156 538.367188 401.476562 538.367188 L 401.476562 511.132812 L 374.429688 511.132812 L 374.429688 474.003906 C 374.429688 435.308594 374.429688 396.617188 374.429688 357.921875 L 401.476562 357.921875 C 401.476562 346.964844 400.96875 335.816406 400.96875 324.253906 Z M 400.96875 324.253906 " fill-opacity="1" fill-rule="evenodd"/></g><path fill="#00ffff" d="M 909.402344 267.554688 C 909.402344 270.3125 909.402344 273.066406 909.402344 275.824219 C 909.402344 278.597656 909.402344 281.375 909.402344 284.148438 C 912.09375 284.148438 914.78125 284.148438 917.46875 284.148438 C 947.367188 284.148438 977.257812 284.148438 1007.15625 284.148438 L 1013.652344 284.148438 L 1013.652344 290.945312 C 1013.652344 294.929688 1013.652344 298.914062 1013.652344 302.898438 C 1013.652344 306.878906 1013.652344 310.867188 1013.652344 314.847656 L 1013.652344 321.640625 L 1007.15625 321.640625 C 977.257812 321.640625 947.367188 321.640625 917.46875 321.640625 C 913.679688 321.640625 909.890625 321.640625 906.097656 321.640625 L 899.601562 321.640625 L 899.601562 314.847656 C 899.601562 310.867188 899.601562 306.878906 899.601562 302.898438 C 899.601562 300.121094 899.601562 297.347656 899.601562 294.570312 C 896.875 294.570312 894.148438 294.570312 891.421875 294.570312 C 887.632812 294.570312 883.84375 294.570312 880.050781 294.570312 L 873.554688 294.570312 L 873.554688 287.773438 C 873.554688 261.777344 873.554688 235.777344 873.554688 209.78125 L 873.554688 202.988281 L 880.050781 202.988281 C 883.84375 202.988281 887.632812 202.988281 891.421875 202.988281 C 894.148438 202.988281 896.875 202.988281 899.601562 202.988281 C 899.601562 194.035156 899.601562 185.089844 899.601562 176.136719 L 906.097656 176.136719 C 909.890625 176.136719 913.679688 176.136719 917.46875 176.136719 C 947.367188 176.136719 977.257812 176.136719 1007.15625 176.136719 L 1013.652344 176.136719 L 1013.652344 182.933594 C 1013.652344 186.917969 1013.652344 190.902344 1013.652344 194.886719 C 1013.652344 198.867188 1013.652344 202.855469 1013.652344 206.835938 L 1013.652344 213.632812 L 1007.15625 213.632812 C 977.257812 213.632812 947.367188 213.632812 917.46875 213.632812 C 914.78125 213.632812 912.09375 213.632812 909.402344 213.632812 C 909.402344 216.386719 909.402344 219.148438 909.402344 221.902344 C 909.402344 224.621094 909.402344 227.34375 909.402344 230.058594 C 912.09375 230.058594 914.78125 230.058594 917.46875 230.058594 C 929.960938 230.058594 942.453125 230.058594 954.945312 230.058594 L 961.441406 230.058594 L 961.441406 236.855469 C 961.441406 240.835938 961.441406 244.824219 961.441406 248.804688 C 961.441406 252.789062 961.441406 256.769531 961.441406 260.757812 L 961.441406 267.550781 L 954.945312 267.550781 C 942.453125 267.550781 929.960938 267.550781 917.46875 267.550781 C 914.78125 267.554688 912.09375 267.554688 909.402344 267.554688 Z M 718.238281 183.105469 L 718.238281 176.3125 L 724.734375 176.3125 C 734.574219 176.3125 744.410156 176.3125 754.25 176.3125 L 754.25 183.105469 C 754.25 187.089844 754.25 191.074219 754.25 195.054688 C 754.25 197.753906 754.25 200.453125 754.25 203.15625 C 760.746094 203.15625 767.25 203.15625 773.746094 203.15625 L 780.242188 203.15625 L 780.242188 209.949219 C 780.242188 213.992188 780.242188 218.03125 780.242188 222.074219 C 780.242188 224.789062 780.242188 227.511719 780.242188 230.230469 C 782.953125 230.230469 785.660156 230.230469 788.367188 230.230469 C 791.058594 230.230469 793.75 230.230469 796.4375 230.230469 C 796.4375 227.511719 796.4375 224.789062 796.4375 222.074219 C 796.4375 218.03125 796.4375 213.992188 796.4375 209.949219 L 796.4375 203.15625 L 802.9375 203.15625 C 809.453125 203.15625 815.96875 203.15625 822.484375 203.15625 C 822.484375 200.453125 822.484375 197.753906 822.484375 195.054688 C 822.484375 191.074219 822.484375 187.089844 822.484375 183.105469 L 822.484375 176.3125 L 828.984375 176.3125 C 838.824219 176.3125 848.660156 176.3125 858.5 176.3125 L 858.5 183.105469 C 858.5 227.078125 858.5 271.046875 858.5 315.015625 L 858.5 321.8125 C 848.660156 321.8125 838.824219 321.8125 828.984375 321.8125 L 822.484375 321.8125 L 822.484375 315.015625 C 822.484375 293.003906 822.484375 270.988281 822.484375 248.976562 C 822.484375 246.257812 822.484375 243.539062 822.484375 240.816406 C 819.777344 240.816406 817.070312 240.816406 814.359375 240.816406 C 811.671875 240.816406 808.980469 240.816406 806.289062 240.816406 C 806.289062 243.539062 806.289062 246.257812 806.289062 248.976562 C 806.289062 252.960938 806.289062 256.945312 806.289062 260.925781 L 806.289062 267.722656 L 799.792969 267.722656 C 792.175781 267.722656 784.558594 267.722656 776.9375 267.722656 L 770.441406 267.722656 L 770.441406 260.925781 C 770.441406 256.945312 770.441406 252.960938 770.441406 248.976562 C 770.441406 246.257812 770.441406 243.539062 770.441406 240.816406 C 765.046875 240.816406 759.644531 240.816406 754.25 240.816406 C 754.25 265.550781 754.25 290.285156 754.25 315.015625 L 754.25 321.8125 L 747.753906 321.8125 C 740.082031 321.8125 732.40625 321.8125 724.734375 321.8125 L 718.238281 321.8125 L 718.238281 315.015625 C 718.238281 271.046875 718.238281 227.078125 718.238281 183.105469 Z M 599.585938 267.554688 C 599.585938 270.3125 599.585938 273.066406 599.585938 275.824219 C 599.585938 278.542969 599.585938 281.265625 599.585938 283.980469 L 599.585938 321.644531 L 563.734375 321.644531 C 563.734375 284.355469 563.734375 247.070312 563.734375 209.78125 L 563.734375 202.988281 L 570.234375 202.988281 C 576.730469 202.988281 583.230469 202.988281 589.730469 202.988281 C 589.730469 200.285156 589.730469 197.585938 589.730469 194.886719 C 589.730469 190.84375 589.730469 186.808594 589.730469 182.765625 L 589.730469 175.96875 C 616.917969 175.96875 644.097656 175.96875 671.285156 175.96875 L 677.785156 175.96875 L 677.785156 182.765625 C 677.785156 186.808594 677.785156 190.84375 677.785156 194.886719 C 677.785156 197.585938 677.785156 200.285156 677.785156 202.988281 C 680.492188 202.988281 683.203125 202.988281 685.90625 202.988281 C 691.882812 202.988281 697.859375 202.988281 703.835938 202.988281 L 703.835938 209.78125 C 703.835938 247.070312 703.835938 284.355469 703.835938 321.644531 L 667.984375 321.644531 C 667.984375 306.371094 667.984375 291.097656 667.984375 275.824219 C 667.984375 273.070312 667.984375 270.3125 667.984375 267.554688 C 647.910156 267.554688 627.839844 267.554688 607.761719 267.554688 C 605.039062 267.554688 602.308594 267.554688 599.585938 267.554688 Z M 599.585938 230.058594 C 602.308594 230.058594 605.039062 230.058594 607.761719 230.058594 C 627.839844 230.058594 647.910156 230.058594 667.984375 230.058594 C 667.984375 227.324219 667.984375 224.585938 667.984375 221.847656 C 667.984375 219.109375 667.984375 216.371094 667.984375 213.632812 C 647.910156 213.632812 627.839844 213.632812 607.761719 213.632812 C 605.039062 213.632812 602.308594 213.632812 599.585938 213.632812 C 599.585938 216.371094 599.585938 219.109375 599.585938 221.847656 C 599.585938 224.585938 599.585938 227.324219 599.585938 230.058594 Z M 408.257812 209.78125 L 408.257812 202.988281 L 414.753906 202.988281 C 418.527344 202.988281 422.300781 202.988281 426.074219 202.988281 C 428.796875 202.988281 431.527344 202.988281 434.25 202.988281 C 434.25 200.285156 434.25 197.585938 434.25 194.886719 C 434.25 190.902344 434.25 186.917969 434.25 182.933594 L 434.25 176.140625 L 440.746094 176.140625 C 444.558594 176.140625 448.367188 176.140625 452.175781 176.140625 C 484.238281 176.140625 516.292969 176.140625 548.355469 176.140625 L 548.355469 182.933594 C 548.355469 190.902344 548.355469 198.867188 548.355469 206.835938 L 548.355469 213.632812 L 541.855469 213.632812 C 538.011719 213.632812 534.167969 213.632812 530.320312 213.632812 C 504.273438 213.632812 478.222656 213.632812 452.175781 213.632812 C 449.488281 213.632812 446.796875 213.632812 444.105469 213.632812 C 444.105469 234.363281 444.105469 255.09375 444.105469 275.824219 C 444.105469 278.542969 444.105469 281.265625 444.105469 283.980469 C 446.796875 283.980469 449.488281 283.980469 452.175781 283.980469 C 454.882812 283.980469 457.59375 283.980469 460.300781 283.980469 L 466.800781 283.980469 C 481.980469 283.980469 497.164062 283.980469 512.34375 283.980469 C 512.34375 281.265625 512.34375 278.542969 512.34375 275.824219 C 512.34375 273.066406 512.34375 270.3125 512.34375 267.554688 C 497.164062 267.554688 481.980469 267.554688 466.800781 267.554688 L 460.300781 267.554688 L 460.300781 260.757812 C 460.300781 256.773438 460.300781 252.789062 460.300781 248.804688 C 460.300781 244.824219 460.300781 240.835938 460.300781 236.855469 L 460.300781 230.0625 L 466.796875 230.0625 C 487.972656 230.0625 509.148438 230.0625 530.320312 230.0625 C 534.167969 230.0625 538.011719 230.0625 541.855469 230.0625 L 548.355469 230.0625 L 548.355469 236.855469 C 548.355469 262.851562 548.355469 288.851562 548.355469 314.847656 L 548.355469 321.644531 L 541.855469 321.644531 C 508.152344 321.644531 474.449219 321.644531 440.746094 321.644531 L 434.25 321.644531 L 434.25 314.847656 C 434.25 310.867188 434.25 306.878906 434.25 302.898438 C 434.25 300.121094 434.25 297.347656 434.25 294.570312 C 427.753906 294.570312 421.253906 294.570312 414.753906 294.570312 L 408.257812 294.570312 L 408.257812 287.773438 C 408.257812 283.792969 408.257812 279.808594 408.257812 275.824219 C 408.257812 253.808594 408.257812 231.796875 408.257812 209.78125 Z M 408.257812 209.78125 " fill-opacity="1" fill-rule="evenodd"/><path fill="#00ffff" d="M 872.964844 367.046875 L 872.964844 360.25 L 879.460938 360.25 C 915.253906 360.25 951.054688 360.25 986.847656 360.25 C 986.847656 369.257812 986.847656 378.261719 986.847656 387.269531 C 993.417969 387.269531 999.992188 387.269531 1006.5625 387.269531 L 1013.058594 387.269531 L 1013.058594 394.0625 C 1013.058594 402.03125 1013.058594 409.996094 1013.058594 417.960938 L 1013.058594 424.757812 L 1006.5625 424.757812 C 999.992188 424.757812 993.417969 424.757812 986.847656 424.757812 C 986.847656 427.535156 986.847656 430.3125 986.847656 433.085938 C 986.847656 437.070312 986.847656 441.054688 986.847656 445.039062 L 986.847656 451.835938 L 980.351562 451.835938 C 976.539062 451.835938 972.734375 451.835938 968.921875 451.835938 C 966.234375 451.835938 963.542969 451.835938 960.851562 451.835938 C 960.851562 454.535156 960.851562 457.234375 960.851562 459.933594 C 960.851562 462.707031 960.851562 465.484375 960.851562 468.261719 C 963.542969 468.261719 966.234375 468.261719 968.921875 468.261719 C 972.734375 468.261719 976.542969 468.261719 980.351562 468.261719 L 986.847656 468.261719 L 986.847656 475.058594 C 986.847656 485.289062 986.847656 495.519531 986.847656 505.753906 L 980.351562 505.753906 C 976.539062 505.753906 972.734375 505.753906 968.921875 505.753906 C 965.117188 505.753906 961.304688 505.753906 957.496094 505.753906 L 951 505.753906 C 951 496.730469 951 487.703125 951 478.679688 C 944.5 478.679688 938.003906 478.679688 931.5 478.679688 L 925.003906 478.679688 L 925.003906 471.882812 C 925.003906 465.199219 925.003906 458.515625 925.003906 451.835938 C 922.292969 451.835938 919.589844 451.835938 916.878906 451.835938 C 914.1875 451.835938 911.503906 451.835938 908.8125 451.835938 C 908.8125 467.539062 908.8125 483.25 908.8125 498.957031 L 908.8125 505.75 L 902.316406 505.75 C 894.695312 505.75 887.078125 505.75 879.460938 505.75 L 872.964844 505.75 L 872.964844 498.957031 C 872.964844 454.984375 872.964844 411.019531 872.964844 367.046875 Z M 908.8125 414.34375 C 911.503906 414.34375 914.1875 414.34375 916.878906 414.34375 C 936.933594 414.34375 956.992188 414.34375 977.046875 414.34375 C 977.046875 411.5625 977.046875 408.785156 977.046875 406.011719 C 977.046875 403.316406 977.046875 400.613281 977.046875 397.914062 C 956.992188 397.914062 936.933594 397.914062 916.878906 397.914062 C 914.1875 397.914062 911.503906 397.914062 908.8125 397.914062 C 908.8125 400.613281 908.8125 403.316406 908.8125 406.011719 C 908.8125 408.785156 908.8125 411.5625 908.8125 414.34375 Z M 753.171875 452.003906 C 753.171875 454.761719 753.171875 457.519531 753.171875 460.273438 C 753.171875 463.046875 753.171875 465.828125 753.171875 468.601562 C 755.863281 468.601562 758.546875 468.601562 761.238281 468.601562 C 791.132812 468.601562 821.027344 468.601562 850.921875 468.601562 L 857.421875 468.601562 L 857.421875 475.394531 C 857.421875 479.378906 857.421875 483.363281 857.421875 487.347656 C 857.421875 491.328125 857.421875 495.316406 857.421875 499.296875 L 857.421875 506.09375 L 850.921875 506.09375 C 821.027344 506.09375 791.132812 506.09375 761.238281 506.09375 C 757.445312 506.09375 753.660156 506.09375 749.867188 506.09375 L 743.371094 506.09375 L 743.371094 499.296875 C 743.371094 495.316406 743.371094 491.328125 743.371094 487.347656 C 743.371094 484.570312 743.371094 481.796875 743.371094 479.019531 C 740.644531 479.019531 737.917969 479.019531 735.191406 479.019531 C 731.398438 479.019531 727.613281 479.019531 723.820312 479.019531 L 717.324219 479.019531 L 717.324219 472.222656 C 717.324219 446.226562 717.324219 420.230469 717.324219 394.230469 L 717.324219 387.4375 L 723.820312 387.4375 C 727.613281 387.4375 731.398438 387.4375 735.191406 387.4375 C 737.917969 387.4375 740.644531 387.4375 743.371094 387.4375 C 743.371094 384.734375 743.371094 382.035156 743.371094 379.335938 C 743.371094 375.351562 743.371094 371.371094 743.371094 367.382812 L 743.371094 360.589844 L 749.867188 360.589844 C 783.550781 360.589844 817.238281 360.589844 850.921875 360.589844 L 857.421875 360.589844 L 857.421875 367.382812 C 857.421875 371.371094 857.421875 375.351562 857.421875 379.335938 C 857.421875 383.316406 857.421875 387.304688 857.421875 391.285156 L 857.421875 398.082031 L 850.921875 398.082031 C 818.339844 398.082031 785.753906 398.082031 753.171875 398.082031 C 753.171875 400.839844 753.171875 403.597656 753.171875 406.355469 C 753.171875 409.070312 753.171875 411.792969 753.171875 414.511719 C 755.863281 414.511719 758.546875 414.511719 761.238281 414.511719 C 773.730469 414.511719 786.222656 414.511719 798.714844 414.511719 L 805.210938 414.511719 L 805.210938 421.304688 C 805.210938 425.285156 805.210938 429.273438 805.210938 433.253906 C 805.210938 437.238281 805.210938 441.222656 805.210938 445.207031 L 805.210938 452.003906 L 798.714844 452.003906 C 786.222656 452.003906 773.730469 452.003906 761.238281 452.003906 C 758.546875 452.003906 755.863281 452.003906 753.171875 452.003906 Z M 562.921875 379.164062 C 562.921875 375.183594 562.921875 371.195312 562.921875 367.214844 L 562.921875 360.421875 L 569.421875 360.421875 C 576.984375 360.421875 584.546875 360.421875 592.113281 360.421875 L 598.609375 360.421875 L 598.609375 367.214844 C 598.609375 371.195312 598.609375 375.183594 598.609375 379.164062 C 598.609375 399.894531 598.609375 420.625 598.609375 441.359375 C 601.320312 441.359375 604.023438 441.359375 606.734375 441.359375 C 610.542969 441.359375 614.351562 441.359375 618.160156 441.359375 L 624.65625 441.359375 C 624.65625 450.382812 624.65625 459.410156 624.65625 468.429688 C 627.347656 468.429688 630.039062 468.429688 632.726562 468.429688 C 635.4375 468.429688 638.144531 468.429688 640.851562 468.429688 C 640.851562 459.410156 640.851562 450.382812 640.851562 441.359375 L 647.351562 441.359375 C 653.902344 441.359375 660.457031 441.359375 667.011719 441.359375 C 667.011719 416.644531 667.011719 391.929688 667.011719 367.214844 L 667.011719 360.421875 L 673.507812 360.421875 C 677.316406 360.421875 681.125 360.421875 684.933594 360.421875 C 688.742188 360.421875 692.550781 360.421875 696.359375 360.421875 L 702.859375 360.421875 L 702.859375 367.214844 C 702.859375 393.15625 702.859375 419.097656 702.859375 445.039062 L 702.859375 451.835938 L 696.359375 451.835938 C 692.550781 451.835938 688.742188 451.835938 684.933594 451.835938 C 682.226562 451.835938 679.515625 451.835938 676.808594 451.835938 C 676.808594 454.59375 676.808594 457.351562 676.808594 460.101562 C 676.808594 464.089844 676.808594 468.070312 676.808594 472.054688 L 676.808594 478.851562 L 670.308594 478.851562 C 666.484375 478.851562 662.65625 478.851562 658.832031 478.851562 C 656.105469 478.851562 653.378906 478.851562 650.652344 478.851562 C 650.652344 481.625 650.652344 484.402344 650.652344 487.175781 C 650.652344 491.160156 650.652344 495.144531 650.652344 499.128906 L 650.652344 505.925781 L 644.15625 505.925781 C 640.34375 505.925781 636.539062 505.925781 632.726562 505.925781 C 628.921875 505.925781 625.109375 505.925781 621.300781 505.925781 L 614.804688 505.925781 L 614.804688 499.128906 C 614.804688 495.144531 614.804688 491.160156 614.804688 487.175781 C 614.804688 484.402344 614.804688 481.625 614.804688 478.851562 C 612.113281 478.851562 609.425781 478.851562 606.734375 478.851562 C 602.921875 478.851562 599.117188 478.851562 595.304688 478.851562 L 588.808594 478.851562 C 588.808594 469.84375 588.808594 460.839844 588.808594 451.835938 C 582.34375 451.835938 575.882812 451.835938 569.421875 451.835938 L 562.921875 451.835938 L 562.921875 445.039062 C 562.921875 423.078125 562.921875 401.125 562.921875 379.164062 Z M 408.851562 394.402344 L 408.851562 387.605469 L 415.347656 387.605469 C 421.8125 387.605469 428.273438 387.605469 434.738281 387.605469 C 434.738281 380.867188 434.738281 374.121094 434.738281 367.382812 L 434.738281 360.589844 L 441.234375 360.589844 C 466.238281 360.589844 491.238281 360.589844 516.238281 360.589844 L 522.738281 360.589844 L 522.738281 367.382812 C 522.738281 371.386719 522.738281 375.390625 522.738281 379.394531 C 522.738281 382.128906 522.738281 384.867188 522.738281 387.605469 C 525.445312 387.605469 528.152344 387.605469 530.863281 387.605469 C 534.726562 387.605469 538.585938 387.605469 542.453125 387.605469 L 548.949219 387.605469 L 548.949219 394.402344 C 548.949219 398.386719 548.949219 402.367188 548.949219 406.355469 C 548.949219 428.367188 548.949219 450.382812 548.949219 472.394531 L 548.949219 479.1875 C 540.210938 479.1875 531.476562 479.1875 522.738281 479.1875 C 522.738281 481.910156 522.738281 484.628906 522.738281 487.347656 C 522.738281 493.597656 522.738281 499.84375 522.738281 506.09375 L 516.238281 506.09375 C 491.238281 506.09375 466.238281 506.09375 441.234375 506.09375 L 434.738281 506.09375 L 434.738281 499.296875 C 434.738281 495.316406 434.738281 491.328125 434.738281 487.347656 C 434.738281 484.628906 434.738281 481.910156 434.738281 479.1875 C 428.273438 479.1875 421.8125 479.1875 415.347656 479.1875 L 408.851562 479.1875 L 408.851562 472.394531 C 408.851562 446.394531 408.851562 420.398438 408.851562 394.402344 Z M 444.699219 460.386719 C 444.699219 463.125 444.699219 465.863281 444.699219 468.601562 C 447.371094 468.601562 450.042969 468.601562 452.714844 468.601562 C 472.789062 468.601562 492.859375 468.601562 512.9375 468.601562 C 512.9375 465.863281 512.9375 463.125 512.9375 460.386719 C 512.9375 442.378906 512.9375 424.363281 512.9375 406.355469 C 512.9375 403.597656 512.9375 400.839844 512.9375 398.082031 C 492.859375 398.082031 472.789062 398.082031 452.714844 398.082031 C 450.042969 398.082031 447.371094 398.082031 444.699219 398.082031 C 444.699219 400.839844 444.699219 403.597656 444.699219 406.355469 C 444.699219 424.363281 444.699219 442.378906 444.699219 460.386719 Z M 444.699219 460.386719 " fill-opacity="1" fill-rule="evenodd"/><path fill="#ff00ff" d="M 927.421875 267.554688 C 927.421875 270.3125 927.421875 273.066406 927.421875 275.824219 C 927.421875 278.597656 927.421875 281.375 927.421875 284.148438 C 930.113281 284.148438 932.796875 284.148438 935.488281 284.148438 C 965.382812 284.148438 995.277344 284.148438 1025.171875 284.148438 L 1031.671875 284.148438 L 1031.671875 290.945312 C 1031.671875 294.929688 1031.671875 298.914062 1031.671875 302.898438 C 1031.671875 306.878906 1031.671875 310.867188 1031.671875 314.847656 L 1031.671875 321.640625 L 1025.171875 321.640625 C 995.277344 321.640625 965.382812 321.640625 935.488281 321.640625 C 931.695312 321.640625 927.910156 321.640625 924.117188 321.640625 L 917.621094 321.640625 L 917.621094 314.847656 C 917.621094 310.867188 917.621094 306.878906 917.621094 302.898438 C 917.621094 300.121094 917.621094 297.347656 917.621094 294.570312 C 914.894531 294.570312 912.167969 294.570312 909.441406 294.570312 C 905.648438 294.570312 901.863281 294.570312 898.070312 294.570312 L 891.574219 294.570312 L 891.574219 287.773438 C 891.574219 261.777344 891.574219 235.777344 891.574219 209.78125 L 891.574219 202.988281 L 898.070312 202.988281 C 901.863281 202.988281 905.648438 202.988281 909.441406 202.988281 C 912.167969 202.988281 914.894531 202.988281 917.621094 202.988281 C 917.621094 194.035156 917.621094 185.089844 917.621094 176.136719 L 924.117188 176.136719 C 927.910156 176.136719 931.695312 176.136719 935.488281 176.136719 C 965.382812 176.136719 995.277344 176.136719 1025.171875 176.136719 L 1031.671875 176.136719 L 1031.671875 182.933594 C 1031.671875 186.917969 1031.671875 190.902344 1031.671875 194.886719 C 1031.671875 198.867188 1031.671875 202.855469 1031.671875 206.835938 L 1031.671875 213.632812 L 1025.171875 213.632812 C 995.277344 213.632812 965.382812 213.632812 935.488281 213.632812 C 932.796875 213.632812 930.113281 213.632812 927.421875 213.632812 C 927.421875 216.386719 927.421875 219.148438 927.421875 221.902344 C 927.421875 224.621094 927.421875 227.34375 927.421875 230.058594 C 930.113281 230.058594 932.796875 230.058594 935.488281 230.058594 C 947.980469 230.058594 960.472656 230.058594 972.964844 230.058594 L 979.460938 230.058594 L 979.460938 236.855469 C 979.460938 240.835938 979.460938 244.824219 979.460938 248.804688 C 979.460938 252.789062 979.460938 256.769531 979.460938 260.757812 L 979.460938 267.550781 L 972.964844 267.550781 C 960.472656 267.550781 947.980469 267.550781 935.488281 267.550781 C 932.796875 267.554688 930.113281 267.554688 927.421875 267.554688 Z M 736.253906 183.105469 L 736.253906 176.3125 L 742.753906 176.3125 C 752.59375 176.3125 762.429688 176.3125 772.269531 176.3125 L 772.269531 183.105469 C 772.269531 187.089844 772.269531 191.074219 772.269531 195.054688 C 772.269531 197.753906 772.269531 200.453125 772.269531 203.15625 C 778.765625 203.15625 785.265625 203.15625 791.765625 203.15625 L 798.261719 203.15625 L 798.261719 209.949219 C 798.261719 213.992188 798.261719 218.03125 798.261719 222.074219 C 798.261719 224.789062 798.261719 227.511719 798.261719 230.230469 C 800.972656 230.230469 803.675781 230.230469 806.386719 230.230469 C 809.078125 230.230469 811.765625 230.230469 814.457031 230.230469 C 814.457031 227.511719 814.457031 224.789062 814.457031 222.074219 C 814.457031 218.03125 814.457031 213.992188 814.457031 209.949219 L 814.457031 203.15625 L 820.953125 203.15625 C 827.472656 203.15625 833.988281 203.15625 840.503906 203.15625 C 840.503906 200.453125 840.503906 197.753906 840.503906 195.054688 C 840.503906 191.074219 840.503906 187.089844 840.503906 183.105469 L 840.503906 176.3125 L 847 176.3125 C 856.839844 176.3125 866.679688 176.3125 876.515625 176.3125 L 876.515625 183.105469 C 876.515625 227.078125 876.515625 271.046875 876.515625 315.015625 L 876.515625 321.8125 C 866.675781 321.8125 856.839844 321.8125 847 321.8125 L 840.503906 321.8125 L 840.503906 315.015625 C 840.503906 293.003906 840.503906 270.988281 840.503906 248.976562 C 840.503906 246.257812 840.503906 243.539062 840.503906 240.816406 C 837.792969 240.816406 835.089844 240.816406 832.378906 240.816406 C 829.691406 240.816406 827 240.816406 824.308594 240.816406 C 824.308594 243.539062 824.308594 246.257812 824.308594 248.976562 C 824.308594 252.960938 824.308594 256.945312 824.308594 260.925781 L 824.308594 267.722656 L 817.8125 267.722656 C 810.191406 267.722656 802.574219 267.722656 794.957031 267.722656 L 788.460938 267.722656 L 788.460938 260.925781 C 788.460938 256.945312 788.460938 252.960938 788.460938 248.976562 C 788.460938 246.257812 788.460938 243.539062 788.460938 240.816406 C 783.066406 240.816406 777.664062 240.816406 772.269531 240.816406 C 772.269531 265.550781 772.269531 290.285156 772.269531 315.015625 L 772.269531 321.8125 L 765.773438 321.8125 C 758.101562 321.8125 750.425781 321.8125 742.753906 321.8125 L 736.253906 321.8125 L 736.253906 315.015625 C 736.253906 271.046875 736.253906 227.078125 736.253906 183.105469 Z M 617.601562 267.554688 C 617.601562 270.3125 617.601562 273.066406 617.601562 275.824219 C 617.601562 278.542969 617.601562 281.265625 617.601562 283.980469 L 617.601562 321.644531 L 581.753906 321.644531 C 581.753906 284.355469 581.753906 247.070312 581.753906 209.78125 L 581.753906 202.988281 L 588.253906 202.988281 C 594.75 202.988281 601.25 202.988281 607.746094 202.988281 C 607.746094 200.285156 607.746094 197.585938 607.746094 194.886719 C 607.746094 190.84375 607.746094 186.808594 607.746094 182.765625 L 607.746094 175.96875 C 634.933594 175.96875 662.117188 175.96875 689.304688 175.96875 L 695.800781 175.96875 L 695.800781 182.765625 C 695.800781 186.808594 695.800781 190.84375 695.800781 194.886719 C 695.800781 197.585938 695.800781 200.285156 695.800781 202.988281 C 698.511719 202.988281 701.222656 202.988281 703.925781 202.988281 C 709.902344 202.988281 715.875 202.988281 721.851562 202.988281 L 721.851562 209.78125 C 721.851562 247.070312 721.851562 284.355469 721.851562 321.644531 L 686.003906 321.644531 C 686.003906 306.371094 686.003906 291.097656 686.003906 275.824219 C 686.003906 273.070312 686.003906 270.3125 686.003906 267.554688 C 665.929688 267.554688 645.859375 267.554688 625.78125 267.554688 C 623.058594 267.554688 620.328125 267.554688 617.601562 267.554688 Z M 617.601562 230.058594 C 620.328125 230.058594 623.058594 230.058594 625.78125 230.058594 C 645.855469 230.058594 665.929688 230.058594 686.003906 230.058594 C 686.003906 227.324219 686.003906 224.585938 686.003906 221.847656 C 686.003906 219.109375 686.003906 216.371094 686.003906 213.632812 C 665.929688 213.632812 645.855469 213.632812 625.78125 213.632812 C 623.058594 213.632812 620.328125 213.632812 617.601562 213.632812 C 617.601562 216.371094 617.601562 219.109375 617.601562 221.847656 C 617.601562 224.585938 617.601562 227.324219 617.601562 230.058594 Z M 426.277344 209.78125 L 426.277344 202.988281 L 432.773438 202.988281 C 436.546875 202.988281 440.320312 202.988281 444.089844 202.988281 C 446.816406 202.988281 449.542969 202.988281 452.269531 202.988281 C 452.269531 200.285156 452.269531 197.585938 452.269531 194.886719 C 452.269531 190.902344 452.269531 186.917969 452.269531 182.933594 L 452.269531 176.140625 L 458.765625 176.140625 C 462.578125 176.140625 466.382812 176.140625 470.195312 176.140625 C 502.257812 176.140625 534.3125 176.140625 566.375 176.140625 L 566.375 182.933594 C 566.375 190.902344 566.375 198.867188 566.375 206.835938 L 566.375 213.632812 L 559.875 213.632812 C 556.03125 213.632812 552.183594 213.632812 548.339844 213.632812 C 522.292969 213.632812 496.242188 213.632812 470.195312 213.632812 C 467.503906 213.632812 464.816406 213.632812 462.125 213.632812 C 462.125 234.363281 462.125 255.09375 462.125 275.824219 C 462.125 278.542969 462.125 281.265625 462.125 283.980469 C 464.816406 283.980469 467.503906 283.980469 470.195312 283.980469 C 472.902344 283.980469 475.609375 283.980469 478.320312 283.980469 L 484.816406 283.980469 C 500 283.980469 515.179688 283.980469 530.363281 283.980469 C 530.363281 281.265625 530.363281 278.542969 530.363281 275.824219 C 530.363281 273.066406 530.363281 270.3125 530.363281 267.554688 C 515.179688 267.554688 500 267.554688 484.816406 267.554688 L 478.320312 267.554688 L 478.320312 260.757812 C 478.320312 256.773438 478.320312 252.789062 478.320312 248.804688 C 478.320312 244.824219 478.320312 240.835938 478.320312 236.855469 L 478.320312 230.0625 L 484.816406 230.0625 C 505.992188 230.0625 527.167969 230.0625 548.339844 230.0625 C 552.1875 230.0625 556.03125 230.0625 559.875 230.0625 L 566.375 230.0625 L 566.375 236.855469 C 566.375 262.851562 566.375 288.851562 566.375 314.847656 L 566.375 321.644531 L 559.875 321.644531 C 526.171875 321.644531 492.46875 321.644531 458.765625 321.644531 L 452.269531 321.644531 L 452.269531 314.847656 C 452.269531 310.867188 452.269531 306.878906 452.269531 302.898438 C 452.269531 300.121094 452.269531 297.347656 452.269531 294.570312 C 445.773438 294.570312 439.269531 294.570312 432.773438 294.570312 L 426.277344 294.570312 L 426.277344 287.773438 C 426.277344 283.792969 426.277344 279.808594 426.277344 275.824219 C 426.277344 253.808594 426.277344 231.796875 426.277344 209.78125 Z M 426.277344 209.78125 " fill-opacity="1" fill-rule="evenodd"/><path fill="#ff00ff" d="M 890.980469 367.046875 L 890.980469 360.25 L 897.480469 360.25 C 933.273438 360.25 969.074219 360.25 1004.867188 360.25 C 1004.867188 369.257812 1004.867188 378.261719 1004.867188 387.269531 C 1011.4375 387.269531 1018.011719 387.269531 1024.582031 387.269531 L 1031.078125 387.269531 L 1031.078125 394.0625 C 1031.078125 402.03125 1031.078125 409.996094 1031.078125 417.960938 L 1031.078125 424.757812 L 1024.582031 424.757812 C 1018.011719 424.757812 1011.4375 424.757812 1004.867188 424.757812 C 1004.867188 427.535156 1004.867188 430.3125 1004.867188 433.085938 C 1004.867188 437.070312 1004.867188 441.054688 1004.867188 445.039062 L 1004.867188 451.835938 L 998.371094 451.835938 C 994.558594 451.835938 990.753906 451.835938 986.941406 451.835938 C 984.25 451.835938 981.5625 451.835938 978.871094 451.835938 C 978.871094 454.535156 978.871094 457.234375 978.871094 459.933594 C 978.871094 462.707031 978.871094 465.484375 978.871094 468.261719 C 981.5625 468.261719 984.25 468.261719 986.941406 468.261719 C 990.753906 468.261719 994.558594 468.261719 998.371094 468.261719 L 1004.867188 468.261719 L 1004.867188 475.058594 C 1004.867188 485.289062 1004.867188 495.519531 1004.867188 505.753906 L 998.371094 505.753906 C 994.558594 505.753906 990.753906 505.753906 986.941406 505.753906 C 983.132812 505.753906 979.324219 505.753906 975.515625 505.753906 L 969.019531 505.753906 C 969.019531 496.730469 969.019531 487.703125 969.019531 478.679688 C 962.519531 478.679688 956.019531 478.679688 949.519531 478.679688 L 943.023438 478.679688 L 943.023438 471.882812 C 943.023438 465.199219 943.023438 458.515625 943.023438 451.835938 C 940.3125 451.835938 937.605469 451.835938 934.898438 451.835938 C 932.207031 451.835938 929.519531 451.835938 926.832031 451.835938 C 926.832031 467.539062 926.832031 483.25 926.832031 498.957031 L 926.832031 505.75 L 920.332031 505.75 C 912.714844 505.75 905.097656 505.75 897.480469 505.75 L 890.984375 505.75 L 890.984375 498.957031 C 890.980469 454.984375 890.980469 411.019531 890.980469 367.046875 Z M 926.832031 414.34375 C 929.519531 414.34375 932.207031 414.34375 934.898438 414.34375 C 954.953125 414.34375 975.011719 414.34375 995.066406 414.34375 C 995.066406 411.5625 995.066406 408.785156 995.066406 406.011719 C 995.066406 403.316406 995.066406 400.613281 995.066406 397.914062 C 975.011719 397.914062 954.953125 397.914062 934.898438 397.914062 C 932.207031 397.914062 929.519531 397.914062 926.832031 397.914062 C 926.832031 400.613281 926.832031 403.316406 926.832031 406.011719 C 926.832031 408.785156 926.832031 411.5625 926.832031 414.34375 Z M 771.191406 452.003906 C 771.191406 454.761719 771.191406 457.519531 771.191406 460.273438 C 771.191406 463.046875 771.191406 465.828125 771.191406 468.601562 C 773.878906 468.601562 776.566406 468.601562 779.257812 468.601562 C 809.152344 468.601562 839.046875 468.601562 868.941406 468.601562 L 875.4375 468.601562 L 875.4375 475.394531 C 875.4375 479.378906 875.4375 483.363281 875.4375 487.347656 C 875.4375 491.328125 875.4375 495.316406 875.4375 499.296875 L 875.4375 506.09375 L 868.941406 506.09375 C 839.046875 506.09375 809.152344 506.09375 779.257812 506.09375 C 775.464844 506.09375 771.675781 506.09375 767.886719 506.09375 L 761.386719 506.09375 L 761.386719 499.296875 C 761.386719 495.316406 761.386719 491.328125 761.386719 487.347656 C 761.386719 484.570312 761.386719 481.796875 761.386719 479.019531 C 758.664062 479.019531 755.933594 479.019531 753.210938 479.019531 C 749.417969 479.019531 745.632812 479.019531 741.839844 479.019531 L 735.34375 479.019531 L 735.34375 472.222656 C 735.34375 446.226562 735.34375 420.230469 735.34375 394.230469 L 735.34375 387.4375 L 741.839844 387.4375 C 745.632812 387.4375 749.417969 387.4375 753.210938 387.4375 C 755.933594 387.4375 758.664062 387.4375 761.386719 387.4375 C 761.386719 384.734375 761.386719 382.035156 761.386719 379.335938 C 761.386719 375.351562 761.386719 371.371094 761.386719 367.382812 L 761.386719 360.589844 L 767.886719 360.589844 C 801.570312 360.589844 835.257812 360.589844 868.941406 360.589844 L 875.4375 360.589844 L 875.4375 367.382812 C 875.4375 371.371094 875.4375 375.351562 875.4375 379.335938 C 875.4375 383.316406 875.4375 387.304688 875.4375 391.285156 L 875.4375 398.082031 L 868.941406 398.082031 C 836.359375 398.082031 803.773438 398.082031 771.191406 398.082031 C 771.191406 400.839844 771.191406 403.597656 771.191406 406.355469 C 771.191406 409.070312 771.191406 411.792969 771.191406 414.511719 C 773.878906 414.511719 776.566406 414.511719 779.257812 414.511719 C 791.75 414.511719 804.242188 414.511719 816.734375 414.511719 L 823.230469 414.511719 L 823.230469 421.304688 C 823.230469 425.285156 823.230469 429.273438 823.230469 433.253906 C 823.230469 437.238281 823.230469 441.222656 823.230469 445.207031 L 823.230469 452.003906 L 816.734375 452.003906 C 804.242188 452.003906 791.75 452.003906 779.257812 452.003906 C 776.566406 452.003906 773.878906 452.003906 771.191406 452.003906 Z M 580.941406 379.164062 C 580.941406 375.183594 580.941406 371.195312 580.941406 367.214844 L 580.941406 360.421875 L 587.4375 360.421875 C 595.003906 360.421875 602.566406 360.421875 610.132812 360.421875 L 616.628906 360.421875 L 616.628906 367.214844 C 616.628906 371.195312 616.628906 375.183594 616.628906 379.164062 C 616.628906 399.894531 616.628906 420.625 616.628906 441.359375 C 619.335938 441.359375 622.042969 441.359375 624.753906 441.359375 C 628.558594 441.359375 632.371094 441.359375 636.179688 441.359375 L 642.675781 441.359375 C 642.675781 450.382812 642.675781 459.410156 642.675781 468.429688 C 645.367188 468.429688 648.054688 468.429688 650.746094 468.429688 C 653.457031 468.429688 656.160156 468.429688 658.871094 468.429688 C 658.871094 459.410156 658.871094 450.382812 658.871094 441.359375 L 665.367188 441.359375 C 671.921875 441.359375 678.472656 441.359375 685.027344 441.359375 C 685.027344 416.644531 685.027344 391.929688 685.027344 367.214844 L 685.027344 360.421875 L 691.527344 360.421875 C 695.332031 360.421875 699.144531 360.421875 702.953125 360.421875 C 706.761719 360.421875 710.570312 360.421875 714.378906 360.421875 L 720.878906 360.421875 L 720.878906 367.214844 C 720.878906 393.15625 720.878906 419.097656 720.878906 445.039062 L 720.878906 451.835938 L 714.378906 451.835938 C 710.570312 451.835938 706.761719 451.835938 702.953125 451.835938 C 700.246094 451.835938 697.535156 451.835938 694.828125 451.835938 C 694.828125 454.59375 694.828125 457.351562 694.828125 460.101562 C 694.828125 464.089844 694.828125 468.070312 694.828125 472.054688 L 694.828125 478.851562 L 688.328125 478.851562 C 684.503906 478.851562 680.675781 478.851562 676.851562 478.851562 C 674.125 478.851562 671.398438 478.851562 668.671875 478.851562 C 668.671875 481.625 668.671875 484.402344 668.671875 487.175781 C 668.671875 491.160156 668.671875 495.144531 668.671875 499.128906 L 668.671875 505.925781 L 662.175781 505.925781 C 658.363281 505.925781 654.558594 505.925781 650.746094 505.925781 C 646.941406 505.925781 643.128906 505.925781 639.320312 505.925781 L 632.824219 505.925781 L 632.824219 499.128906 C 632.824219 495.144531 632.824219 491.160156 632.824219 487.175781 C 632.824219 484.402344 632.824219 481.625 632.824219 478.851562 C 630.132812 478.851562 627.445312 478.851562 624.753906 478.851562 C 620.941406 478.851562 617.136719 478.851562 613.324219 478.851562 L 606.828125 478.851562 C 606.828125 469.84375 606.828125 460.839844 606.828125 451.835938 C 600.363281 451.835938 593.902344 451.835938 587.4375 451.835938 L 580.941406 451.835938 L 580.941406 445.039062 C 580.941406 423.078125 580.941406 401.125 580.941406 379.164062 Z M 426.871094 394.402344 L 426.871094 387.605469 L 433.367188 387.605469 C 439.832031 387.605469 446.292969 387.605469 452.757812 387.605469 C 452.757812 380.867188 452.757812 374.121094 452.757812 367.382812 L 452.757812 360.589844 L 459.253906 360.589844 C 484.257812 360.589844 509.257812 360.589844 534.257812 360.589844 L 540.757812 360.589844 L 540.757812 367.382812 C 540.757812 371.386719 540.757812 375.390625 540.757812 379.394531 C 540.757812 382.128906 540.757812 384.867188 540.757812 387.605469 C 543.464844 387.605469 546.171875 387.605469 548.878906 387.605469 C 552.746094 387.605469 556.605469 387.605469 560.46875 387.605469 L 566.96875 387.605469 L 566.96875 394.402344 C 566.96875 398.386719 566.96875 402.367188 566.96875 406.355469 C 566.96875 428.367188 566.96875 450.382812 566.96875 472.394531 L 566.96875 479.1875 C 558.230469 479.1875 549.496094 479.1875 540.757812 479.1875 C 540.757812 481.910156 540.757812 484.628906 540.757812 487.347656 C 540.757812 493.597656 540.757812 499.84375 540.757812 506.09375 L 534.257812 506.09375 C 509.257812 506.09375 484.257812 506.09375 459.253906 506.09375 L 452.757812 506.09375 L 452.757812 499.296875 C 452.757812 495.316406 452.757812 491.328125 452.757812 487.347656 C 452.757812 484.628906 452.757812 481.910156 452.757812 479.1875 C 446.292969 479.1875 439.832031 479.1875 433.367188 479.1875 L 426.871094 479.1875 L 426.871094 472.394531 C 426.871094 446.394531 426.871094 420.398438 426.871094 394.402344 Z M 462.71875 460.386719 C 462.71875 463.125 462.71875 465.863281 462.71875 468.601562 C 465.390625 468.601562 468.0625 468.601562 470.734375 468.601562 C 490.808594 468.601562 510.878906 468.601562 530.953125 468.601562 C 530.953125 465.863281 530.953125 463.125 530.953125 460.386719 C 530.953125 442.378906 530.953125 424.363281 530.953125 406.355469 C 530.953125 403.597656 530.953125 400.839844 530.953125 398.082031 C 510.878906 398.082031 490.808594 398.082031 470.734375 398.082031 C 468.0625 398.082031 465.390625 398.082031 462.71875 398.082031 C 462.71875 400.839844 462.71875 403.597656 462.71875 406.355469 C 462.71875 424.363281 462.71875 442.378906 462.71875 460.386719 Z M 462.71875 460.386719 " fill-opacity="1" fill-rule="evenodd"/><path fill="#ffffff" d="M 909.402344 267.554688 C 909.402344 270.3125 909.402344 273.066406 909.402344 275.824219 C 909.402344 278.597656 909.402344 281.375 909.402344 284.148438 C 912.09375 284.148438 914.78125 284.148438 917.46875 284.148438 L 1013.648438 284.148438 L 1013.648438 290.945312 C 1013.648438 294.929688 1013.648438 298.914062 1013.648438 302.898438 C 1013.648438 306.878906 1013.648438 310.867188 1013.648438 314.847656 L 1013.648438 321.640625 L 917.625 321.640625 L 917.625 314.847656 C 917.625 310.867188 917.625 306.878906 917.625 302.898438 C 917.625 300.121094 917.625 297.347656 917.625 294.570312 C 914.898438 294.570312 912.167969 294.570312 909.445312 294.570312 L 891.578125 294.570312 L 891.578125 287.773438 C 891.578125 261.777344 891.578125 235.777344 891.578125 209.78125 L 891.578125 202.988281 L 909.445312 202.988281 C 912.167969 202.988281 914.898438 202.988281 917.625 202.988281 C 917.625 194.035156 917.625 185.089844 917.625 176.136719 L 1013.648438 176.136719 L 1013.648438 182.933594 C 1013.648438 186.917969 1013.648438 190.902344 1013.648438 194.886719 C 1013.648438 198.867188 1013.648438 202.855469 1013.648438 206.835938 L 1013.648438 213.632812 L 917.476562 213.632812 C 914.785156 213.632812 912.101562 213.632812 909.410156 213.632812 C 909.410156 216.386719 909.410156 219.148438 909.410156 221.902344 C 909.410156 224.621094 909.410156 227.34375 909.410156 230.058594 C 912.101562 230.058594 914.785156 230.058594 917.476562 230.058594 L 961.4375 230.058594 L 961.4375 236.855469 C 961.4375 240.835938 961.4375 244.824219 961.4375 248.804688 C 961.4375 252.789062 961.4375 256.769531 961.4375 260.757812 L 961.4375 267.550781 L 917.472656 267.550781 C 914.78125 267.554688 912.09375 267.554688 909.402344 267.554688 Z M 876.515625 294.570312 L 873.554688 294.570312 L 873.554688 287.773438 C 873.554688 261.777344 873.554688 235.78125 873.554688 209.78125 L 873.554688 202.988281 L 876.515625 202.988281 Z M 736.253906 183.105469 L 736.253906 176.3125 L 754.253906 176.3125 L 754.253906 183.105469 C 754.253906 187.089844 754.253906 191.074219 754.253906 195.054688 C 754.253906 197.753906 754.253906 200.453125 754.253906 203.15625 L 780.246094 203.15625 L 780.246094 209.949219 C 780.246094 213.992188 780.246094 218.03125 780.246094 222.074219 C 780.246094 224.789062 780.246094 227.511719 780.246094 230.230469 C 782.953125 230.230469 785.660156 230.230469 788.371094 230.230469 C 791.058594 230.230469 793.75 230.230469 796.441406 230.230469 C 796.441406 227.511719 796.441406 224.789062 796.441406 222.074219 C 796.441406 218.03125 796.441406 213.992188 796.441406 209.949219 L 796.441406 203.15625 L 798.261719 203.15625 L 798.261719 209.949219 C 798.261719 213.992188 798.261719 218.03125 798.261719 222.074219 C 798.261719 224.789062 798.261719 227.511719 798.261719 230.230469 C 800.972656 230.230469 803.679688 230.230469 806.386719 230.230469 C 809.078125 230.230469 811.769531 230.230469 814.460938 230.230469 C 814.460938 227.511719 814.460938 224.789062 814.460938 222.074219 C 814.460938 218.03125 814.460938 213.992188 814.460938 209.949219 L 814.460938 203.15625 L 840.507812 203.15625 C 840.507812 200.453125 840.507812 197.753906 840.507812 195.054688 C 840.507812 191.074219 840.507812 187.089844 840.507812 183.105469 L 840.507812 176.3125 L 858.503906 176.3125 L 858.503906 183.105469 C 858.503906 227.078125 858.503906 271.046875 858.503906 315.015625 L 858.503906 321.8125 L 840.507812 321.8125 L 840.507812 315.015625 C 840.507812 293.003906 840.507812 270.988281 840.507812 248.976562 C 840.507812 246.257812 840.507812 243.539062 840.507812 240.816406 C 837.796875 240.816406 835.09375 240.816406 832.382812 240.816406 C 829.691406 240.816406 827 240.816406 824.3125 240.816406 C 824.3125 243.539062 824.3125 246.257812 824.3125 248.976562 C 824.3125 252.960938 824.3125 256.945312 824.3125 260.925781 L 824.3125 267.722656 L 822.488281 267.722656 L 822.488281 248.976562 C 822.488281 246.257812 822.488281 243.539062 822.488281 240.816406 C 819.777344 240.816406 817.074219 240.816406 814.363281 240.816406 C 811.675781 240.816406 808.984375 240.816406 806.292969 240.816406 C 806.292969 243.539062 806.292969 246.257812 806.292969 248.976562 C 806.292969 252.960938 806.292969 256.945312 806.292969 260.925781 L 806.292969 267.722656 L 788.464844 267.722656 L 788.464844 260.925781 C 788.464844 256.945312 788.464844 252.960938 788.464844 248.976562 C 788.464844 246.257812 788.464844 243.539062 788.464844 240.816406 C 783.070312 240.816406 777.667969 240.816406 772.273438 240.816406 L 772.273438 267.722656 L 770.445312 267.722656 L 770.445312 260.925781 C 770.445312 256.945312 770.445312 252.960938 770.445312 248.976562 C 770.445312 246.257812 770.445312 243.539062 770.445312 240.816406 C 765.050781 240.816406 759.648438 240.816406 754.253906 240.816406 C 754.253906 265.550781 754.253906 290.285156 754.253906 315.015625 L 754.253906 321.8125 L 736.257812 321.8125 L 736.257812 315.015625 C 736.253906 271.046875 736.253906 227.078125 736.253906 183.105469 Z M 581.753906 321.644531 C 581.753906 284.355469 581.753906 247.070312 581.753906 209.78125 L 581.753906 202.988281 L 607.75 202.988281 C 607.75 200.285156 607.75 197.585938 607.75 194.886719 C 607.75 190.84375 607.75 186.808594 607.75 182.765625 L 607.75 175.96875 L 677.785156 175.96875 L 677.785156 182.765625 C 677.785156 186.808594 677.785156 190.84375 677.785156 194.886719 C 677.785156 197.585938 677.785156 200.285156 677.785156 202.988281 C 680.492188 202.988281 683.203125 202.988281 685.90625 202.988281 L 703.832031 202.988281 L 703.832031 209.78125 C 703.832031 247.070312 703.832031 284.355469 703.832031 321.644531 L 686.003906 321.644531 C 686.003906 306.371094 686.003906 291.097656 686.003906 275.824219 C 686.003906 273.070312 686.003906 270.3125 686.003906 267.554688 L 607.761719 267.554688 C 605.035156 267.554688 602.308594 267.554688 599.582031 267.554688 C 599.582031 270.3125 599.582031 273.066406 599.582031 275.824219 C 599.582031 278.542969 599.582031 281.265625 599.582031 283.980469 L 599.582031 321.644531 Z M 718.238281 202.988281 L 721.851562 202.988281 L 721.851562 209.78125 C 721.851562 247.070312 721.851562 284.355469 721.851562 321.644531 L 718.238281 321.644531 Z M 667.984375 230.058594 L 686.003906 230.058594 C 686.003906 227.324219 686.003906 224.585938 686.003906 221.847656 C 686.003906 219.109375 686.003906 216.371094 686.003906 213.632812 L 607.761719 213.632812 C 605.035156 213.632812 602.308594 213.632812 599.582031 213.632812 C 599.582031 216.371094 599.582031 219.109375 599.582031 221.847656 C 599.582031 224.585938 599.582031 227.324219 599.582031 230.058594 C 602.308594 230.058594 605.035156 230.058594 607.761719 230.058594 Z M 426.277344 209.78125 L 426.277344 202.988281 L 444.089844 202.988281 C 446.816406 202.988281 449.542969 202.988281 452.269531 202.988281 C 452.269531 200.285156 452.269531 197.585938 452.269531 194.886719 C 452.269531 190.902344 452.269531 186.917969 452.269531 182.933594 L 452.269531 176.140625 L 548.355469 176.140625 L 548.355469 182.933594 C 548.355469 190.902344 548.355469 198.867188 548.355469 206.835938 L 548.355469 213.632812 L 452.175781 213.632812 C 449.484375 213.632812 446.796875 213.632812 444.105469 213.632812 C 444.105469 234.363281 444.105469 255.09375 444.105469 275.824219 C 444.105469 278.542969 444.105469 281.265625 444.105469 283.980469 C 446.796875 283.980469 449.484375 283.980469 452.175781 283.980469 C 454.882812 283.980469 457.589844 283.980469 460.300781 283.980469 L 530.363281 283.980469 C 530.363281 281.265625 530.363281 278.542969 530.363281 275.824219 C 530.363281 273.066406 530.363281 270.3125 530.363281 267.554688 L 478.320312 267.554688 L 478.320312 260.757812 C 478.320312 256.773438 478.320312 252.789062 478.320312 248.804688 C 478.320312 244.824219 478.320312 240.835938 478.320312 236.855469 L 478.320312 230.0625 L 548.359375 230.0625 L 548.359375 236.855469 C 548.359375 262.851562 548.359375 288.851562 548.359375 314.847656 L 548.359375 321.644531 L 452.273438 321.644531 L 452.273438 314.847656 C 452.273438 310.867188 452.273438 306.878906 452.273438 302.898438 C 452.273438 300.121094 452.273438 297.347656 452.273438 294.570312 L 426.28125 294.570312 L 426.28125 287.773438 C 426.28125 283.792969 426.28125 279.808594 426.28125 275.824219 C 426.277344 253.808594 426.277344 231.796875 426.277344 209.78125 Z M 566.375 202.988281 L 566.375 213.632812 L 563.734375 213.632812 L 563.734375 202.988281 Z M 462.125 230.058594 L 460.300781 230.058594 L 460.300781 236.855469 C 460.300781 240.835938 460.300781 244.824219 460.300781 248.804688 C 460.300781 252.789062 460.300781 256.773438 460.300781 260.757812 L 460.300781 267.550781 L 462.125 267.550781 Z M 563.734375 230.058594 L 566.375 230.058594 L 566.375 236.855469 C 566.375 262.851562 566.375 288.851562 566.375 314.847656 L 566.375 321.640625 L 563.734375 321.640625 Z M 563.734375 230.058594 " fill-opacity="1" fill-rule="evenodd"/><path fill="#ffffff" d="M 872.964844 367.046875 L 872.964844 360.589844 L 875.4375 360.589844 L 875.4375 367.382812 C 875.4375 371.371094 875.4375 375.351562 875.4375 379.335938 C 875.4375 383.316406 875.4375 387.304688 875.4375 391.285156 L 875.4375 398.082031 L 872.964844 398.082031 Z M 890.980469 360.25 L 986.84375 360.25 C 986.84375 369.257812 986.84375 378.261719 986.84375 387.269531 L 1013.054688 387.269531 L 1013.054688 394.0625 C 1013.054688 402.03125 1013.054688 409.996094 1013.054688 417.960938 L 1013.054688 424.757812 L 986.84375 424.757812 C 986.84375 427.535156 986.84375 430.3125 986.84375 433.085938 C 986.84375 437.070312 986.84375 441.054688 986.84375 445.039062 L 986.84375 451.835938 L 968.917969 451.835938 C 966.226562 451.835938 963.539062 451.835938 960.847656 451.835938 C 960.847656 454.535156 960.847656 457.234375 960.847656 459.933594 C 960.847656 462.707031 960.847656 465.484375 960.847656 468.261719 C 963.539062 468.261719 966.226562 468.261719 968.917969 468.261719 L 986.84375 468.261719 L 986.84375 475.058594 C 986.84375 485.289062 986.84375 495.519531 986.84375 505.753906 L 969.019531 505.753906 C 969.019531 496.730469 969.019531 487.703125 969.019531 478.679688 L 943.023438 478.679688 L 943.023438 471.882812 C 943.023438 465.199219 943.023438 458.515625 943.023438 451.835938 C 940.3125 451.835938 937.609375 451.835938 934.898438 451.835938 C 932.207031 451.835938 929.523438 451.835938 926.832031 451.835938 L 926.832031 478.679688 L 925.003906 478.679688 L 925.003906 471.882812 C 925.003906 465.199219 925.003906 458.515625 925.003906 451.835938 C 922.296875 451.835938 919.589844 451.835938 916.878906 451.835938 C 914.191406 451.835938 911.503906 451.835938 908.8125 451.835938 C 908.8125 467.539062 908.8125 483.25 908.8125 498.957031 L 908.8125 505.75 L 890.984375 505.75 L 890.984375 498.957031 C 890.984375 454.984375 890.984375 411.019531 890.984375 367.046875 L 890.984375 360.25 Z M 875.4375 505.75 L 872.964844 505.75 L 872.964844 468.601562 L 875.4375 468.601562 L 875.4375 475.394531 C 875.4375 479.378906 875.4375 483.363281 875.4375 487.347656 C 875.4375 491.328125 875.4375 495.316406 875.4375 499.296875 Z M 977.046875 414.34375 L 995.066406 414.34375 C 995.066406 411.5625 995.066406 408.785156 995.066406 406.011719 C 995.066406 403.316406 995.066406 400.613281 995.066406 397.914062 L 916.894531 397.914062 C 914.203125 397.914062 911.515625 397.914062 908.824219 397.914062 C 908.824219 400.613281 908.824219 403.316406 908.824219 406.011719 C 908.824219 408.785156 908.824219 411.5625 908.824219 414.34375 C 911.515625 414.34375 914.203125 414.34375 916.894531 414.34375 Z M 761.386719 506.09375 L 761.386719 499.296875 C 761.386719 495.316406 761.386719 491.328125 761.386719 487.347656 C 761.386719 484.570312 761.386719 481.796875 761.386719 479.019531 C 758.664062 479.019531 755.933594 479.019531 753.210938 479.019531 L 735.34375 479.019531 L 735.34375 472.226562 C 735.34375 446.226562 735.34375 420.230469 735.34375 394.234375 L 735.34375 387.4375 L 753.210938 387.4375 C 755.933594 387.4375 758.664062 387.4375 761.386719 387.4375 C 761.386719 384.734375 761.386719 382.035156 761.386719 379.335938 C 761.386719 375.351562 761.386719 371.371094 761.386719 367.382812 L 761.386719 360.589844 L 857.414062 360.589844 L 857.414062 367.382812 C 857.414062 371.371094 857.414062 375.351562 857.414062 379.335938 C 857.414062 383.316406 857.414062 387.304688 857.414062 391.285156 L 857.414062 398.082031 L 753.175781 398.082031 C 753.175781 400.839844 753.175781 403.597656 753.175781 406.355469 C 753.175781 409.070312 753.175781 411.792969 753.175781 414.511719 C 755.863281 414.511719 758.550781 414.511719 761.242188 414.511719 L 805.207031 414.511719 L 805.207031 421.304688 C 805.207031 425.285156 805.207031 429.273438 805.207031 433.253906 C 805.207031 437.238281 805.207031 441.222656 805.207031 445.207031 L 805.207031 452.003906 L 761.242188 452.003906 C 758.550781 452.003906 755.863281 452.003906 753.175781 452.003906 C 753.175781 454.757812 753.175781 457.515625 753.175781 460.273438 C 753.175781 463.046875 753.175781 465.824219 753.175781 468.597656 C 755.863281 468.597656 758.550781 468.597656 761.242188 468.597656 L 857.410156 468.597656 L 857.410156 475.394531 C 857.410156 479.378906 857.410156 483.363281 857.410156 487.347656 C 857.410156 491.328125 857.410156 495.316406 857.410156 499.296875 L 857.410156 506.089844 L 761.386719 506.089844 Z M 580.941406 379.164062 C 580.941406 375.183594 580.941406 371.195312 580.941406 367.214844 L 580.941406 360.421875 L 598.609375 360.421875 L 598.609375 367.214844 C 598.609375 371.195312 598.609375 375.183594 598.609375 379.164062 C 598.609375 399.894531 598.609375 420.625 598.609375 441.359375 C 601.320312 441.359375 604.027344 441.359375 606.734375 441.359375 L 624.65625 441.359375 C 624.65625 450.382812 624.65625 459.410156 624.65625 468.429688 C 627.347656 468.429688 630.039062 468.429688 632.726562 468.429688 C 635.4375 468.429688 638.144531 468.429688 640.851562 468.429688 C 640.851562 459.410156 640.851562 450.382812 640.851562 441.359375 L 642.675781 441.359375 C 642.675781 450.382812 642.675781 459.410156 642.675781 468.429688 C 645.367188 468.429688 648.058594 468.429688 650.746094 468.429688 C 653.457031 468.429688 656.160156 468.429688 658.871094 468.429688 C 658.871094 459.410156 658.871094 450.382812 658.871094 441.359375 L 685.027344 441.359375 C 685.027344 416.644531 685.027344 391.929688 685.027344 367.214844 L 685.027344 360.421875 L 702.859375 360.421875 L 702.859375 367.214844 C 702.859375 393.15625 702.859375 419.097656 702.859375 445.039062 L 702.859375 451.835938 L 684.933594 451.835938 C 682.226562 451.835938 679.519531 451.835938 676.808594 451.835938 C 676.808594 454.59375 676.808594 457.351562 676.808594 460.101562 C 676.808594 464.089844 676.808594 468.070312 676.808594 472.054688 L 676.808594 478.851562 L 658.832031 478.851562 C 656.105469 478.851562 653.378906 478.851562 650.652344 478.851562 C 650.652344 481.625 650.652344 484.402344 650.652344 487.175781 C 650.652344 491.160156 650.652344 495.144531 650.652344 499.128906 L 650.652344 505.925781 L 632.824219 505.925781 L 632.824219 499.128906 C 632.824219 495.144531 632.824219 491.160156 632.824219 487.175781 C 632.824219 484.402344 632.824219 481.625 632.824219 478.851562 C 630.132812 478.851562 627.445312 478.851562 624.753906 478.851562 L 606.828125 478.851562 C 606.828125 469.84375 606.828125 460.839844 606.828125 451.835938 L 580.941406 451.835938 L 580.941406 445.039062 C 580.941406 423.078125 580.941406 401.125 580.941406 379.164062 Z M 720.878906 387.4375 L 720.878906 451.835938 L 717.324219 451.835938 L 717.324219 387.4375 Z M 426.871094 394.402344 L 426.871094 387.605469 L 452.757812 387.605469 C 452.757812 380.867188 452.757812 374.121094 452.757812 367.382812 L 452.757812 360.589844 L 522.742188 360.589844 L 522.742188 367.382812 C 522.742188 371.386719 522.742188 375.390625 522.742188 379.394531 C 522.742188 382.128906 522.742188 384.867188 522.742188 387.605469 C 525.453125 387.605469 528.15625 387.605469 530.867188 387.605469 L 548.953125 387.605469 L 548.953125 394.402344 C 548.953125 398.386719 548.953125 402.367188 548.953125 406.355469 C 548.953125 428.367188 548.953125 450.382812 548.953125 472.394531 L 548.953125 479.1875 L 522.742188 479.1875 C 522.742188 481.910156 522.742188 484.628906 522.742188 487.347656 C 522.742188 493.597656 522.742188 499.84375 522.742188 506.09375 L 452.753906 506.09375 L 452.753906 499.296875 C 452.753906 495.316406 452.753906 491.328125 452.753906 487.347656 C 452.753906 484.628906 452.753906 481.910156 452.753906 479.1875 L 426.871094 479.1875 L 426.871094 472.394531 C 426.871094 446.394531 426.871094 420.398438 426.871094 394.402344 Z M 562.921875 387.605469 L 566.96875 387.605469 L 566.96875 394.402344 C 566.96875 398.386719 566.96875 402.367188 566.96875 406.355469 L 566.96875 451.835938 L 562.921875 451.835938 Z M 512.9375 468.601562 L 530.953125 468.601562 C 530.953125 465.863281 530.953125 463.125 530.953125 460.386719 C 530.953125 442.378906 530.953125 424.363281 530.953125 406.355469 C 530.953125 403.597656 530.953125 400.839844 530.953125 398.082031 L 452.71875 398.082031 C 450.046875 398.082031 447.378906 398.082031 444.707031 398.082031 C 444.707031 400.839844 444.707031 403.597656 444.707031 406.355469 C 444.707031 424.363281 444.707031 442.378906 444.707031 460.386719 C 444.707031 463.125 444.707031 465.863281 444.707031 468.601562 C 447.378906 468.601562 450.046875 468.601562 452.71875 468.601562 Z M 512.9375 468.601562 " fill-opacity="1" fill-rule="evenodd"/><g clip-path="url(#d8c5e02942)"><path fill="#c0c0c0" d="M 417.550781 645.84375 L 667.265625 645.84375 L 667.265625 714.84375 L 417.550781 714.84375 Z M 417.550781 645.84375 " fill-opacity="1" fill-rule="nonzero"/></g><path fill="#ffffff" d="M 656.554688 651.195312 L 422.820312 651.195312 L 422.820312 709.574219 L 428.175781 709.574219 L 428.175781 656.464844 L 656.554688 656.464844 Z M 656.554688 651.195312 " fill-opacity="1" fill-rule="nonzero"/><path fill="#000000" d="M 428.175781 709.574219 L 661.910156 709.574219 L 661.910156 651.195312 L 656.554688 651.195312 L 656.554688 704.304688 L 428.175781 704.304688 Z M 428.175781 709.574219 " fill-opacity="0.3" fill-rule="nonzero"/><g clip-path="url(#8d1b35fbf6)"><path fill="#000000" d="M 661.910156 645.84375 L 417.550781 645.84375 L 417.550781 714.84375 L 667.09375 714.84375 L 667.09375 645.84375 Z M 661.910156 709.574219 L 422.90625 709.574219 L 422.90625 651.109375 L 661.910156 651.109375 Z M 519.714844 674.222656 L 519.714844 669.296875 L 522.179688 669.296875 L 522.179688 674.222656 Z M 531.953125 679.152344 L 529.488281 679.152344 L 529.488281 676.6875 L 531.953125 676.6875 L 531.953125 674.222656 L 534.417969 674.222656 L 534.417969 676.6875 L 531.953125 676.6875 Z M 536.882812 674.222656 L 534.417969 674.222656 L 534.417969 669.296875 L 536.882812 669.296875 Z M 522.179688 676.6875 L 522.179688 674.222656 L 524.644531 674.222656 L 524.644531 676.6875 L 527.109375 676.6875 L 527.109375 679.152344 L 524.644531 679.152344 L 524.644531 676.6875 Z M 529.574219 691.390625 L 527.109375 691.390625 L 527.109375 679.152344 L 529.574219 679.152344 Z M 542.40625 688.925781 L 539.941406 688.925781 L 539.941406 679.152344 L 542.40625 679.152344 L 542.40625 681.617188 L 549.71875 681.617188 L 549.71875 679.152344 L 552.183594 679.152344 L 552.183594 684.082031 L 542.40625 684.082031 Z M 549.71875 679.152344 L 542.40625 679.152344 L 542.40625 676.6875 L 549.71875 676.6875 Z M 542.40625 691.390625 L 542.40625 688.925781 L 549.71875 688.925781 L 549.71875 691.390625 Z M 552.183594 688.925781 L 549.71875 688.925781 L 549.71875 686.460938 L 552.183594 686.460938 Z M 562.550781 679.152344 L 557.621094 679.152344 L 557.621094 676.6875 L 562.550781 676.6875 Z M 562.550781 679.152344 L 565.015625 679.152344 L 565.015625 681.617188 L 562.550781 681.617188 Z M 557.707031 683.996094 L 557.707031 681.53125 L 560.171875 681.53125 L 560.171875 683.996094 L 562.636719 683.996094 L 562.636719 686.460938 L 560.171875 686.460938 L 560.171875 683.996094 Z M 557.707031 681.617188 L 555.242188 681.617188 L 555.242188 679.152344 L 557.707031 679.152344 Z M 557.707031 691.390625 L 557.707031 688.925781 L 562.636719 688.925781 L 562.636719 691.390625 Z M 565.015625 688.925781 L 562.550781 688.925781 L 562.550781 686.460938 L 565.015625 686.460938 Z M 557.707031 688.925781 L 555.242188 688.925781 L 555.242188 686.460938 L 557.707031 686.460938 Z M 557.707031 688.925781 " fill-opacity="1" fill-rule="nonzero"/></g><g clip-path="url(#54195f2219)"><path fill="#c0c0c0" d="M 778.050781 645.84375 L 1027.765625 645.84375 L 1027.765625 714.84375 L 778.050781 714.84375 Z M 778.050781 645.84375 " fill-opacity="1" fill-rule="nonzero"/></g><path fill="#ffffff" d="M 1017.058594 651.195312 L 783.320312 651.195312 L 783.320312 709.574219 L 788.675781 709.574219 L 788.675781 656.464844 L 1017.058594 656.464844 Z M 1017.058594 651.195312 " fill-opacity="1" fill-rule="nonzero"/><path fill="#000000" d="M 788.675781 709.574219 L 1022.414062 709.574219 L 1022.414062 651.195312 L 1017.058594 651.195312 L 1017.058594 704.304688 L 788.675781 704.304688 Z M 788.675781 709.574219 " fill-opacity="0.3" fill-rule="nonzero"/><g clip-path="url(#00770ee6ac)"><path fill="#000000" d="M 1022.414062 645.84375 L 778.050781 645.84375 L 778.050781 714.84375 L 1027.597656 714.84375 L 1027.597656 645.84375 Z M 1022.414062 709.574219 L 783.40625 709.574219 L 783.40625 651.109375 L 1022.414062 651.109375 Z M 900.105469 688.925781 L 900.105469 671.84375 L 902.570312 671.84375 L 902.570312 689.007812 L 900.105469 689.007812 Z M 900.105469 671.84375 L 890.332031 671.84375 L 890.332031 669.378906 L 900.105469 669.378906 Z M 890.332031 688.925781 L 900.105469 688.925781 L 900.105469 691.390625 L 890.332031 691.390625 Z M 887.867188 688.925781 L 887.867188 671.84375 L 890.332031 671.84375 L 890.332031 689.007812 L 887.867188 689.007812 Z M 915.402344 691.390625 L 915.402344 688.925781 L 917.867188 688.925781 L 917.867188 691.390625 Z M 913.023438 681.617188 L 910.558594 681.617188 L 910.558594 679.152344 L 913.023438 679.152344 Z M 915.402344 679.152344 L 912.9375 679.152344 L 912.9375 676.6875 L 915.402344 676.6875 Z M 910.558594 686.460938 L 910.558594 683.996094 L 913.023438 683.996094 L 913.023438 686.460938 Z M 913.023438 688.925781 L 913.023438 686.460938 L 915.488281 686.460938 L 915.488281 688.925781 Z M 908.09375 691.390625 L 905.628906 691.390625 L 905.628906 669.378906 L 908.09375 669.378906 L 908.09375 681.617188 L 910.558594 681.617188 L 910.558594 684.082031 L 908.09375 684.082031 Z M 908.09375 691.390625 " fill-opacity="1" fill-rule="nonzero"/></g><g fill="#ffffff" fill-opacity="1"><g transform="translate(592.55856, 587.968046)"><g><path d="M 23.453125 -8.542969 L 23.453125 -21.339844 L 2.144531 -21.339844 L 2.144531 0 L 6.398438 0 L 6.398438 -8.542969 Z M 19.195312 -12.796875 L 6.398438 -12.796875 L 6.398438 -17.054688 L 19.195312 -17.054688 Z M 19.195312 -12.796875 "/></g></g></g><g fill="#ffffff" fill-opacity="1"><g transform="translate(618.152275, 587.968046)"><g><path d="M 23.453125 0 L 23.453125 -4.253906 L 6.398438 -4.253906 L 6.398438 -21.339844 L 2.144531 -21.339844 L 2.144531 0 Z M 23.453125 0 "/></g></g></g><g fill="#ffffff" fill-opacity="1"><g transform="translate(643.745989, 587.968046)"><g><path d="M 23.453125 0 L 23.453125 -21.339844 L 2.144531 -21.339844 L 2.144531 0 L 6.398438 0 L 6.398438 -8.542969 L 19.195312 -8.542969 L 19.195312 0 Z M 19.195312 -12.796875 L 6.398438 -12.796875 L 6.398438 -17.054688 L 19.195312 -17.054688 Z M 19.195312 -12.796875 "/></g></g></g><g fill="#ffffff" fill-opacity="1"><g transform="translate(669.339703, 587.968046)"><g><path d="M 23.453125 0 L 23.453125 -21.339844 L 19.195312 -21.339844 L 19.195312 -12.796875 L 6.398438 -12.796875 L 6.398438 -21.339844 L 2.144531 -21.339844 L 2.144531 -8.542969 L 19.195312 -8.542969 L 19.195312 -4.253906 L 2.144531 -4.253906 L 2.144531 0 Z M 23.453125 0 "/></g></g></g><g fill="#ffffff" fill-opacity="1"><g transform="translate(694.933417, 587.968046)"><g/></g></g><g fill="#ffffff" fill-opacity="1"><g transform="translate(710.929487, 587.968046)"><g><path d="M 23.453125 0 L 23.453125 -21.339844 L 2.144531 -21.339844 L 2.144531 0 L 6.398438 0 L 6.398438 -8.542969 L 19.195312 -8.542969 L 19.195312 0 Z M 19.195312 -12.796875 L 6.398438 -12.796875 L 6.398438 -17.054688 L 19.195312 -17.054688 Z M 19.195312 -12.796875 "/></g></g></g><g fill="#ffffff" fill-opacity="1"><g transform="translate(736.523201, 587.968046)"><g><path d="M 23.453125 0 L 23.453125 -12.796875 L 14.941406 -12.796875 L 14.941406 -8.542969 L 19.195312 -8.542969 L 19.195312 -4.253906 L 6.398438 -4.253906 L 6.398438 -17.054688 L 23.453125 -17.054688 L 23.453125 -21.339844 L 2.144531 -21.339844 L 2.144531 0 Z M 23.453125 0 "/></g></g></g><g fill="#ffffff" fill-opacity="1"><g transform="translate(762.116915, 587.968046)"><g><path d="M 23.453125 0 L 23.453125 -21.339844 L 2.144531 -21.339844 L 2.144531 0 L 6.398438 0 L 6.398438 -8.542969 L 19.195312 -8.542969 L 19.195312 0 Z M 19.195312 -12.796875 L 6.398438 -12.796875 L 6.398438 -17.054688 L 19.195312 -17.054688 Z M 19.195312 -12.796875 "/></g></g></g><g fill="#ffffff" fill-opacity="1"><g transform="translate(787.710618, 587.968046)"><g><path d="M 6.398438 0 L 6.398438 -21.339844 L 2.144531 -21.339844 L 2.144531 0 Z M 6.398438 0 "/></g></g></g><g fill="#ffffff" fill-opacity="1"><g transform="translate(796.252534, 587.968046)"><g><path d="M 23.453125 0 L 23.453125 -21.339844 L 2.144531 -21.339844 L 2.144531 0 L 6.398438 0 L 6.398438 -17.054688 L 19.195312 -17.054688 L 19.195312 0 Z M 23.453125 0 "/></g></g></g><g fill="#ffffff" fill-opacity="1"><g transform="translate(821.846237, 587.968046)"><g><path d="M 23.453125 -8.542969 L 23.453125 -21.339844 L 2.144531 -21.339844 L 2.144531 -17.054688 L 19.195312 -17.054688 L 19.195312 -12.796875 L 10.65625 -12.796875 L 10.65625 -8.542969 Z M 14.941406 0 L 14.941406 -4.253906 L 10.65625 -4.253906 L 10.65625 0 Z M 14.941406 0 "/></g></g></g></svg>