<?xml version="1.0" encoding="UTF-8"?>
<svg version="1.1" xmlns="http://www.w3.org/2000/svg" width="1668" height="2388">
<path d="M0 0 C0.82113281 0.75023437 1.64226562 1.50046875 2.48828125 2.2734375 C4.1799032 3.81510229 5.88605651 5.34095444 7.60546875 6.8515625 C12.84643734 11.46615209 17.52643372 16.2108577 22 21.5625 C22.80953125 22.48417969 23.6190625 23.40585937 24.453125 24.35546875 C53.77909013 57.88610282 72.96973944 99.60139093 80 143.5625 C80.18618896 144.72168945 80.37237793 145.88087891 80.56420898 147.07519531 C82.05201091 157.45630864 82.27731874 167.68720792 82.20581055 178.16455078 C82.18738547 180.9548447 82.18530292 183.74480733 82.18554688 186.53515625 C82.18063509 188.34375282 82.17480826 190.15234719 82.16796875 191.9609375 C82.16685593 192.77783051 82.1657431 193.59472351 82.16459656 194.43637085 C82.12416231 199.43355843 81.75245201 204.3174926 81.21446228 209.28457642 C80.94430294 212.15408959 80.95268689 214.96420889 81.04296875 217.84375 C81.37201061 233.62340495 80.66591257 249.04341147 79.125 264.75 C79.03777679 265.64928223 78.95055359 266.54856445 78.86068726 267.47509766 C76.06281547 295.94926178 76.06281547 295.94926178 71.125 303.8125 C70.40106794 305.00182853 69.67839865 306.19192667 68.95703125 307.3828125 C68.31121094 308.43210937 67.66539062 309.48140625 67 310.5625 C64.03401528 315.93308432 61.75278734 321.52472549 59.5390625 327.2421875 C55.73171439 335.45600956 50.57333714 342.8182957 45.1875 350.0625 C44.57293945 350.89346191 43.95837891 351.72442383 43.32519531 352.58056641 C39.50446553 357.69392629 35.5247392 362.52349105 31.14453125 367.171875 C28.56032956 370.05262442 26.25906694 373.09442198 23.9375 376.1875 C13.66806899 389.7433855 13.66806899 389.7433855 7.3125 392.25 C3.4269256 393.78956721 1.85058786 395.51303392 -1 398.5625 C-7.08281831 404.55045954 -13.53523286 409.39371342 -20.65698242 414.03295898 C-28.81278429 419.31346695 -28.81278429 419.31346695 -34.9375 426.75 C-39.26524743 432.65147376 -48.22888377 433.39126192 -55.0625 434.875 C-64.18489544 436.95363142 -72.40851234 439.82748379 -81 443.5625 C-85.98122566 445.61140158 -90.98128804 447.60735375 -96 449.5625 C-96.65693848 449.82063477 -97.31387695 450.07876953 -97.99072266 450.34472656 C-118.44694842 458.29089946 -138.1359455 460.27520279 -160 460.5625 C-161.36459407 460.59062979 -162.72917972 460.61917632 -164.09375 460.6484375 C-167.40105977 460.68781024 -170.69349828 460.64460275 -174 460.5625 C-174.72155273 460.54993164 -175.44310547 460.53736328 -176.18652344 460.52441406 C-198.45341184 460.08034506 -219.89921198 455.96955711 -241.5625 451.125 C-242.82243271 450.84462891 -242.82243271 450.84462891 -244.1078186 450.55859375 C-253.60476189 448.43233786 -262.99333118 446.16095771 -272.24183655 443.10829163 C-275.66249661 442.029259 -278.69584935 441.45050295 -282.25854492 441.50927734 C-286.6774078 441.57213621 -289.58732779 440.30120916 -293.375 438.25 C-294.0541748 437.89534668 -294.73334961 437.54069336 -295.43310547 437.17529297 C-312.94357076 427.86800035 -329.48967324 417.11388342 -344 403.5625 C-345.43253903 402.30681764 -346.86974927 401.05643592 -348.3125 399.8125 C-350.4313659 397.97165627 -352.41304096 396.13858954 -354.375 394.125 C-359.81765913 388.81192799 -365.87039831 384.28032094 -372.1875 380.0625 C-376.12915244 377.35261394 -379.1540845 374.48030268 -382.13671875 370.75 C-383.78607871 368.81364449 -385.49181604 367.08422059 -387.3125 365.3125 C-391.01058664 361.64707078 -394.18438812 357.71786122 -397.3125 353.5625 C-398.14454956 352.46470215 -398.14454956 352.46470215 -398.9934082 351.34472656 C-402.68965203 346.42205727 -406.25414414 341.42189668 -409.6875 336.3125 C-410.09718018 335.70535156 -410.50686035 335.09820313 -410.92895508 334.47265625 C-413.93776946 329.90587766 -415.89441203 325.75237242 -416.8125 320.375 C-417.76209451 315.85881824 -419.56063895 312.16989082 -421.703125 308.10546875 C-423.39317866 304.79153824 -424.75677654 301.39607362 -426.08984375 297.92578125 C-426.65695287 296.45324469 -427.24921838 294.98985156 -427.87890625 293.54296875 C-431.90096608 284.00272056 -431.18649798 273.18552808 -431.18530273 263.00683594 C-431.18744543 260.98889089 -431.20581559 258.97098366 -431.22460938 256.953125 C-431.25937231 248.45566137 -430.74559619 240.09554033 -429.984375 231.6328125 C-428.72133944 217.31272565 -428.88468616 203.08052121 -429.11645508 188.71923828 C-430.14048674 119.70051314 -404.66339974 58.94437712 -357.01953125 9.453125 C-350.72156209 2.98974226 -344.1676695 -2.93409149 -337 -8.4375 C-336.44473633 -8.86385742 -335.88947266 -9.29021484 -335.31738281 -9.72949219 C-257.35704019 -69.1951242 -152.00209881 -81.68777003 0 0 Z " fill="#FE8C00" transform="translate(1076,795.4375)"/>
<path d="M0 0 C0.82113281 0.75023437 1.64226562 1.50046875 2.48828125 2.2734375 C4.1799032 3.81510229 5.88605651 5.34095444 7.60546875 6.8515625 C12.84643734 11.46615209 17.52643372 16.2108577 22 21.5625 C22.80953125 22.48417969 23.6190625 23.40585937 24.453125 24.35546875 C53.77909013 57.88610282 72.96973944 99.60139093 80 143.5625 C80.18618896 144.72168945 80.37237793 145.88087891 80.56420898 147.07519531 C82.05201091 157.45630864 82.27731874 167.68720792 82.20581055 178.16455078 C82.18738547 180.9548447 82.18530292 183.74480733 82.18554688 186.53515625 C82.18063509 188.34375282 82.17480826 190.15234719 82.16796875 191.9609375 C82.16685593 192.77783051 82.1657431 193.59472351 82.16459656 194.43637085 C82.12416231 199.43355843 81.75245201 204.3174926 81.21446228 209.28457642 C80.94430294 212.15408959 80.95268689 214.96420889 81.04296875 217.84375 C81.37201061 233.62340495 80.66591257 249.04341147 79.125 264.75 C79.03777679 265.64928223 78.95055359 266.54856445 78.86068726 267.47509766 C76.06281547 295.94926178 76.06281547 295.94926178 71.125 303.8125 C70.40106794 305.00182853 69.67839865 306.19192667 68.95703125 307.3828125 C68.31121094 308.43210937 67.66539062 309.48140625 67 310.5625 C64.03401528 315.93308432 61.75278734 321.52472549 59.5390625 327.2421875 C55.73171439 335.45600956 50.57333714 342.8182957 45.1875 350.0625 C44.57293945 350.89346191 43.95837891 351.72442383 43.32519531 352.58056641 C39.50446553 357.69392629 35.5247392 362.52349105 31.14453125 367.171875 C28.56032956 370.05262442 26.25906694 373.09442198 23.9375 376.1875 C13.66806899 389.7433855 13.66806899 389.7433855 7.3125 392.25 C3.4269256 393.78956721 1.85058786 395.51303392 -1 398.5625 C-7.08281831 404.55045954 -13.53523286 409.39371342 -20.65698242 414.03295898 C-28.81278429 419.31346695 -28.81278429 419.31346695 -34.9375 426.75 C-39.26524743 432.65147376 -48.22888377 433.39126192 -55.0625 434.875 C-64.18489544 436.95363142 -72.40851234 439.82748379 -81 443.5625 C-85.98122566 445.61140158 -90.98128804 447.60735375 -96 449.5625 C-96.65693848 449.82063477 -97.31387695 450.07876953 -97.99072266 450.34472656 C-118.44694842 458.29089946 -138.1359455 460.27520279 -160 460.5625 C-161.36459407 460.59062979 -162.72917972 460.61917632 -164.09375 460.6484375 C-167.40105977 460.68781024 -170.69349828 460.64460275 -174 460.5625 C-174.72155273 460.54993164 -175.44310547 460.53736328 -176.18652344 460.52441406 C-198.45341184 460.08034506 -219.89921198 455.96955711 -241.5625 451.125 C-242.82243271 450.84462891 -242.82243271 450.84462891 -244.1078186 450.55859375 C-253.60476189 448.43233786 -262.99333118 446.16095771 -272.24183655 443.10829163 C-275.66249661 442.029259 -278.69584935 441.45050295 -282.25854492 441.50927734 C-286.6774078 441.57213621 -289.58732779 440.30120916 -293.375 438.25 C-294.0541748 437.89534668 -294.73334961 437.54069336 -295.43310547 437.17529297 C-312.94357076 427.86800035 -329.48967324 417.11388342 -344 403.5625 C-345.43253903 402.30681764 -346.86974927 401.05643592 -348.3125 399.8125 C-350.4313659 397.97165627 -352.41304096 396.13858954 -354.375 394.125 C-359.81765913 388.81192799 -365.87039831 384.28032094 -372.1875 380.0625 C-376.12915244 377.35261394 -379.1540845 374.48030268 -382.13671875 370.75 C-383.78607871 368.81364449 -385.49181604 367.08422059 -387.3125 365.3125 C-391.01058664 361.64707078 -394.18438812 357.71786122 -397.3125 353.5625 C-398.14454956 352.46470215 -398.14454956 352.46470215 -398.9934082 351.34472656 C-402.68965203 346.42205727 -406.25414414 341.42189668 -409.6875 336.3125 C-410.09718018 335.70535156 -410.50686035 335.09820313 -410.92895508 334.47265625 C-413.93776946 329.90587766 -415.89441203 325.75237242 -416.8125 320.375 C-417.76209451 315.85881824 -419.56063895 312.16989082 -421.703125 308.10546875 C-423.39317866 304.79153824 -424.75677654 301.39607362 -426.08984375 297.92578125 C-426.65695287 296.45324469 -427.24921838 294.98985156 -427.87890625 293.54296875 C-431.90096608 284.00272056 -431.18649798 273.18552808 -431.18530273 263.00683594 C-431.18744543 260.98889089 -431.20581559 258.97098366 -431.22460938 256.953125 C-431.25937231 248.45566137 -430.74559619 240.09554033 -429.984375 231.6328125 C-428.72133944 217.31272565 -428.88468616 203.08052121 -429.11645508 188.71923828 C-430.14048674 119.70051314 -404.66339974 58.94437712 -357.01953125 9.453125 C-350.72156209 2.98974226 -344.1676695 -2.93409149 -337 -8.4375 C-336.44473633 -8.86385742 -335.88947266 -9.29021484 -335.31738281 -9.72949219 C-257.35704019 -69.1951242 -152.00209881 -81.68777003 0 0 Z M-218 -43.4375 C-218.99370605 -43.23350586 -219.98741211 -43.02951172 -221.01123047 -42.81933594 C-262.10350748 -34.12904987 -300.07867915 -17.00130721 -332 10.5625 C-332.79148437 11.243125 -333.58296875 11.92375 -334.3984375 12.625 C-345.92043091 22.76733725 -356.57931816 33.50109931 -365.72509766 45.84326172 C-366.9627098 47.51221322 -368.22053819 49.16427553 -369.48046875 50.81640625 C-403.62122778 96.31708431 -417.21081505 155.24500255 -409.92407227 211.38330078 C-402.98664082 255.82045573 -383.29081364 297.07812786 -352.53125 329.84375 C-350.39184482 332.14162963 -348.3398101 334.47908807 -346.3125 336.875 C-342.85698131 340.84395661 -339.0311182 344.19165116 -335 347.5625 C-334.14921875 348.30113281 -333.2984375 349.03976562 -332.421875 349.80078125 C-319.31884143 361.02428132 -305.26484029 370.53775034 -290 378.5625 C-289.36271973 378.9023291 -288.72543945 379.2421582 -288.06884766 379.59228516 C-230.33031141 410.22696653 -162.06140191 415.70612696 -99.6875 396.8125 C-62.6201474 385.14340429 -29.9666353 365.42518917 -2 338.5625 C-0.65421875 337.27859375 -0.65421875 337.27859375 0.71875 335.96875 C6.63708572 330.19654602 11.93911077 324.09595566 17 317.5625 C17.41862305 317.02560547 17.83724609 316.48871094 18.26855469 315.93554688 C41.89228319 285.42959057 56.66633929 250.60659506 63 212.5625 C63.12987305 211.79776367 63.25974609 211.03302734 63.39355469 210.24511719 C70.55727282 165.8782242 61.34096404 117.75816069 40.00488281 78.42041016 C38.97916773 76.52398359 37.98564643 74.61270704 36.9921875 72.69921875 C28.75928724 57.16060742 18.07399296 43.296274 6 30.5625 C4.9110529 29.27556251 3.82739855 27.98412109 2.75 26.6875 C-30.43864872 -11.10003769 -80.34660698 -34.21283885 -129 -43.4375 C-129.7832666 -43.59976074 -130.5665332 -43.76202148 -131.37353516 -43.92919922 C-158.47005863 -49.42334679 -190.96388505 -49.04773136 -218 -43.4375 Z " fill="#111010" transform="translate(1076,795.4375)"/>
<path d="M0 0 C1.41800051 0.37201976 2.83197899 0.75961149 4.2421875 1.16015625 C5.01353027 1.37905518 5.78487305 1.5979541 6.57958984 1.82348633 C31.10844522 9.1233325 51.4977339 21.87405425 70.1171875 39.22265625 C70.84679687 39.88652344 71.57640625 40.55039062 72.328125 41.234375 C91.32677532 59.23851114 103.09082099 83.03843706 110.3671875 107.84765625 C110.6137207 108.68208252 110.86025391 109.51650879 111.11425781 110.3762207 C114.46656576 122.29592423 115.48271399 133.99402144 115.4296875 146.34765625 C115.42695328 147.36295914 115.42695328 147.36295914 115.42416382 148.39877319 C115.37365248 159.58382566 114.6470843 170.31621138 112.1171875 181.22265625 C111.95089844 181.96193359 111.78460937 182.70121094 111.61328125 183.46289062 C102.6391993 222.18439235 78.33836503 255.40882907 45.0703125 276.8046875 C29.07827219 286.77791977 11.49960219 293.31709726 -6.8828125 297.22265625 C-7.92824219 297.44953125 -8.97367188 297.67640625 -10.05078125 297.91015625 C-45.73407341 304.29325448 -84.02250438 295.880153 -114.3203125 276.28515625 C-116.19261042 274.95617096 -118.04630333 273.60067492 -119.8828125 272.22265625 C-120.42953613 271.81966309 -120.97625977 271.41666992 -121.53955078 271.00146484 C-149.75530009 250.10876715 -167.79890723 222.49719052 -178.1328125 189.09765625 C-178.5026123 187.91743896 -178.5026123 187.91743896 -178.87988281 186.71337891 C-182.63527166 174.08893549 -183.26179444 161.60021403 -183.1953125 148.53515625 C-183.19249268 147.73630005 -183.18967285 146.93744385 -183.18676758 146.11437988 C-183.12561273 134.59361362 -183.0013286 123.38895583 -179.8828125 112.22265625 C-179.64062988 111.33852051 -179.39844727 110.45438477 -179.14892578 109.54345703 C-172.27614517 85.28730239 -161.09660353 63.9609996 -143.92578125 45.4765625 C-142.50548944 43.90962488 -141.14253605 42.28957015 -139.828125 40.6328125 C-127.16623514 24.94529033 -104.03810337 11.17632774 -84.8828125 5.22265625 C-81.09016031 5.54983927 -79.41607745 7.42072093 -76.8359375 10.1640625 C-75.30525245 13.47009127 -75.74858299 16.6096452 -75.8828125 20.22265625 C-76.40488281 20.4429248 -76.92695312 20.66319336 -77.46484375 20.89013672 C-95.23204398 28.45519899 -110.59463556 37.17950718 -124.8828125 50.22265625 C-125.61886719 50.8878125 -126.35492187 51.55296875 -127.11328125 52.23828125 C-150.65169996 74.60212817 -164.84000493 108.83959906 -166.1015625 141.015625 C-166.99180205 176.86125523 -156.16754981 209.83980518 -132.8828125 237.22265625 C-132.25890625 237.980625 -131.635 238.73859375 -130.9921875 239.51953125 C-112.26182203 261.60004338 -81.46658921 277.75072169 -52.73730469 280.99121094 C-15.41735834 284.01715253 20.40671786 276.57702871 49.7421875 252.16015625 C68.9786465 235.63368339 82.87431907 215.62868992 91.0546875 191.53515625 C91.32506836 190.74157715 91.59544922 189.94799805 91.87402344 189.13037109 C96.26804012 175.33293595 97.67665304 161.80990324 97.5546875 147.41015625 C97.55098145 146.62140106 97.54727539 145.83264587 97.54345703 145.01998901 C97.46343407 133.03730849 96.91433779 121.68250142 93.1171875 110.22265625 C92.84342285 109.38283203 92.5696582 108.54300781 92.28759766 107.67773438 C86.35362504 89.96265515 78.05627946 74.56470332 66.1171875 60.22265625 C65.00537109 58.88074219 65.00537109 58.88074219 63.87109375 57.51171875 C45.96753835 36.76784886 21.47224035 23.88570844 -4.82592773 17.48999023 C-8.92098149 16.42286899 -11.36588392 15.70944998 -14.49609375 12.76171875 C-16.4647659 9.15710776 -16.0138425 7.11057186 -14.8828125 3.22265625 C-11.12595332 -2.41263253 -6.06588362 -1.21439722 0 0 Z " fill="#040200" transform="translate(943.8828125,834.77734375)"/>
<path d="M0 0 C5.28776823 0.09832627 9.23204094 2.92576216 13 6.4375 C19.77833053 16.34090499 17.40230648 34.31481506 17.875 45.9375 C17.95745012 47.93310834 18.0399723 49.9287137 18.12255859 51.92431641 C18.30945699 56.45891099 18.49408119 60.9935932 18.67773438 65.52832031 C18.90956427 71.24137556 19.14592771 76.95422594 19.38476562 82.66699219 C19.69905272 90.18581603 20.00908695 97.70480411 20.31502724 105.22397232 C20.48497055 109.39884802 20.65643342 113.57364644 20.83197021 117.74829102 C21.27482886 128.30979244 21.67778409 138.8715857 22 149.4375 C22.04040405 150.73594849 22.08080811 152.03439697 22.12243652 153.37219238 C22.21950376 156.88625627 22.28517783 160.39906123 22.3359375 163.9140625 C22.36426666 164.92407318 22.39259583 165.93408386 22.42178345 166.97470093 C22.44840882 171.3034764 22.41141542 173.74532061 20.16259766 177.52880859 C17.35758903 180.00448678 15.73805639 180.51378687 12 180.4375 C7.24964505 178.06232252 5.72500242 174.38675494 3.90750122 169.65679932 C1.99402749 162.86888043 1.83453488 155.78106016 1.40234375 148.7734375 C1.2829965 147.03365071 1.16221625 145.2939617 1.0401001 143.55436707 C0.71944533 138.9280766 0.41896757 134.30068535 0.12267685 129.67277908 C-0.18668855 124.89425847 -0.51476577 120.11702187 -0.84057617 115.33959961 C-1.5294488 105.18404377 -2.19187504 95.02688943 -2.84384155 84.86890411 C-2.99016659 82.59060733 -3.1371379 80.3123535 -3.28442383 78.03411865 C-4.0846945 65.65132224 -4.86232807 53.26747936 -5.59797668 40.88067627 C-5.87275515 36.32121089 -6.19532941 31.76832002 -6.55859375 27.21484375 C-6.92302457 22.61422513 -7.19032278 18.05253837 -7.25 13.4375 C-7.28867187 11.6121875 -7.28867187 11.6121875 -7.328125 9.75 C-6.82863357 4.70751505 -5.18805027 0.75659066 0 0 Z " fill="#040200" transform="translate(891,795.5625)"/>
<path d="M0 0 C0 0.33 0 0.66 0 1 C-1.0725 1.268125 -2.145 1.53625 -3.25 1.8125 C-6.56508928 2.86227827 -8.43877646 3.74612328 -11 6 C-8.67640938 -0.47285958 -6.6985661 -0.12404752 0 0 Z " fill="#3D2100" transform="translate(940,834)"/>
</svg>
